<?xml version="1.0" encoding="UTF-8"?>
<svg id="Calque_1" xmlns="http://www.w3.org/2000/svg" viewBox="0 0 700 600">
  <path fill="currentColor" d="M333.3,383.3H366.7V316.7H433.3V283.3H366.7V216.7H333.3V283.3H266.7V316.7H333.3V383.3ZM233.3,450.0C224.2,450.0 216.3,446.7 209.8,440.2C203.3,433.7 200.0,425.8 200.0,416.7V183.3C200.0,174.2 203.3,166.3 209.8,159.8C216.3,153.3 224.2,150.0 233.3,150.0H466.7C475.8,150.0 483.7,153.3 490.2,159.8C496.7,166.3 500.0,174.2 500.0,183.3V416.7C500.0,425.8 496.7,433.7 490.2,440.2C483.7,446.7 475.8,450.0 466.7,450.0H233.3ZM233.3,416.7H466.7V183.3H233.3V416.7Z"/>
</svg>
