<?xml version="1.0" encoding="UTF-8"?>
<svg id="Calque_1" xmlns="http://www.w3.org/2000/svg" version="1.1" viewBox="0 0 700 600">
  <!-- Generator: Adobe Illustrator 29.8.3, SVG Export Plug-In . SVG Version: 2.1.1 Build 3)  -->
  <path fill="currentColor" d="M472.71,486.18H199.07L113.86,202.66h155.57l10.33-18.49,32.02,18.49h10.3c5.87-6.77,12.08-12.78,18.56-17.96l-22.02-38.54,28.96-17.55,22.51,39.12c9.9-4.15,19.65-6.81,29.8-8.13v-44.78h34.04v44.75c10.6,1.33,20.82,4.05,30.24,8.03l22.37-38.88,29.58,17.4-22.71,38.46c8.26,6.31,15.7,13.76,22,22.02l38.46-22.34,17.4,29.58-38.79,21.96c4.19,9.6,6.9,19.72,8.08,30.23h44.58v34.04h-44.76c-1.33,10.43-4.04,20.53-8.01,29.88l38.87,22.37-17.36,29.51-38.46-22.34c-6.32,8.28-13.67,15.56-21.98,21.77l22.76,38.92-29.73,16.61-22.43-38.61c-5.28,2.05-10.76,3.74-16.51,5.09l25.17,82.92ZM342.45,452.14h84.22l-15.19-50.2h-84.22l15.19,50.2ZM224.4,452.14h84.19l-15.19-50.2h-83.93l14.93,50.2ZM375.36,202.66h11.73l50.69,168.15c40.31-9.24,69.76-45.66,69.76-87.95,0-49.87-40.57-90.44-90.44-90.44-14.67,0-28.89,3.54-41.74,10.24ZM317.21,369.7h84.62l-15.54-51.28h-84.88l15.8,51.28ZM199.52,369.7h83.8l-15.8-51.28h-83.54l15.54,51.28ZM291.67,285.82h84.93l-14.78-48.4h-84.93l14.77,48.4ZM174.31,285.82h83.42l-15.03-48.4h-83.17l14.77,48.4Z"/>
</svg>
