<?xml version="1.0" encoding="UTF-8"?>
<svg id="Calque_1" xmlns="http://www.w3.org/2000/svg" version="1.1" viewBox="0 0 700 600">
  <!-- Generator: Adobe Illustrator 29.8.3, SVG Export Plug-In . SVG Version: 2.1.1 Build 3)  -->
  <path fill="currentColor" d="M426.32,489.78h-194.24v-32.24h80.28v-57.05c-19.85-4.05-37.8-14.23-51.26-29.23-15.46-17.23-23.98-39.67-23.98-63.2,0-17.49,5.08-34.68,14.47-49.45l-53.15-30.73,89.63-117.66,161.04,154.31-56.78,74.96-112.68-64.8c-6.45,9.87-9.93,21.46-9.93,33.38,0,34.39,27.81,62.36,62,62.36,17.32,0,32.32-6.58,45.85-20.11l2.93-2.93h121.06v32.24h-108.01c-13.46,11.74-29.83,19.28-47.15,21.8v56.12h79.92v32.24ZM249.01,217.59l134.44,77.41,20.23-26.58-111.83-107.05-42.84,56.21Z"/>
</svg>
