<?xml version="1.0" encoding="UTF-8"?>
<svg id="Calque_1" xmlns="http://www.w3.org/2000/svg" version="1.1" viewBox="0 0 700 600">
  <!-- Generator: Adobe Illustrator 29.8.3, SVG Export Plug-In . SVG Version: 2.1.1 Build 3)  -->
  <path fill="currentColor" d="M320.85,489.1c-104.37,0-189.28-84.91-189.28-189.28s84.91-188.92,189.28-188.92c49.68,0,96.22,18.56,131.02,52.27,29.62,28.69,48.89,66.15,55.27,106.89l42.05-28.35,19.24,27.98-75.52,51.23-75.11-51.25,19.23-27.97,34.05,23.06c-15.41-68.7-77.59-119.82-150.23-119.82-42.39,0-81.84,16.6-111.08,46.73-28.06,28.92-44.16,68.34-44.16,108.15s16.24,79.09,44.55,108.13c29.39,30.15,68.7,46.75,110.69,46.75,61.05,0,116.53-35.7,141.36-90.94l4.12-9.18,30.77,14.06-4.04,9.05c-30.21,67.68-97.8,111.4-172.21,111.4ZM313.65,420.7c-23.18,0-46.75-4.84-64.65-13.29-22.79-10.75-35.35-26.97-35.35-45.67v-123.48c0-41.9,61.34-57.52,100-57.52,21.77,0,45.21,4.55,62.72,12.17,30.52,13.29,36.92,32,36.92,45.35v123.48c0,42.95-61.12,58.96-99.64,58.96ZM246.25,361.57c.61,14.9,37.29,26.88,67.4,26.88s66.49-12,67.04-26.92l.17-19.58c-19.81,11.11-45.93,15.38-67.22,15.38-15.8,0-32.31-2.41-46.51-6.79-7.75-2.39-14.76-5.35-20.89-8.79v19.81ZM246.61,297.82c.33,9.35,13.95,15.87,22.06,18.93,15.65,5.9,34.01,8,44.98,8,26.35,0,66.47-10.73,67.04-26.92l.17-17.38c-20.04,10.83-46.16,14.98-67.21,14.98s-46.97-4.14-67.21-14.97l.17,17.37ZM246.28,238.25c1.4,12.2,35.59,24.93,67.37,24.93,14.84,0,32.35-3.13,45.7-8.17,12.76-4.82,20.77-11.03,21.65-16.74-.88-5.64-8.59-11.84-20.87-16.73-13.28-5.28-31.09-8.56-46.48-8.56-14.21,0-31.95,3.18-45.21,8.1-13.28,4.93-21.5,11.32-22.17,17.17Z"/>
</svg>
