<?xml version="1.0" encoding="UTF-8"?>
<svg id="Calque_1" xmlns="http://www.w3.org/2000/svg" version="1.1" viewBox="0 0 700 600">
  <!-- Generator: Adobe Illustrator 29.8.6, SVG Export Plug-In . SVG Version: 2.1.1 Build 1)  -->
  <path d="M117.39,490.32v-42.29h465.22v42.29H117.39ZM180.83,426.88c-11.63,0-21.59-4.14-29.87-12.42-8.28-8.28-12.42-18.24-12.42-29.87v-232.61c0-11.63,4.14-21.59,12.42-29.87s18.24-12.42,29.87-12.42h338.34c11.63,0,21.59,4.14,29.87,12.42,8.28,8.28,12.42,18.24,12.42,29.87v232.61c0,11.63-4.14,21.59-12.42,29.87-8.28,8.28-18.24,12.42-29.87,12.42H180.83ZM180.83,384.58h338.34v-232.61H180.83v232.61ZM180.83,384.58v-232.61,232.61Z"/>
</svg>