<?xml version="1.0" encoding="UTF-8"?>
<svg id="Calque_1" xmlns="http://www.w3.org/2000/svg" version="1.1" viewBox="0 0 700 600">
  <!-- Generator: Adobe Illustrator 29.8.3, SVG Export Plug-In . SVG Version: 2.1.1 Build 3)  -->
  <path fill="currentColor" d="M597.42,487.3H102.58v-91.72c0-38.97,19.28-75.69,50.98-98.31-9.12-13.8-13.9-29.65-13.9-46.41,0-46.21,37.59-83.8,83.8-83.8,12.12,0,24.18,2.78,35.46,8.13,14.08-37.36,49.66-62.49,90.54-62.49s76.97,25.71,90.92,62.75c11.47-5.51,23.77-8.38,36.16-8.38,46.41,0,84.16,37.59,84.16,83.8,0,16.58-4.88,32.43-14.21,46.39,31.67,22.46,50.93,59.18,50.93,98.33v91.72ZM136.62,453.26h72.16v-72.8c0-18.04,4-34.55,8.66-47.68-15.65-1.31-28.97-5.37-40.32-12.27-29.75,14.38-40.5,47.72-40.5,75.07v57.68ZM490.5,453.25h72.88v-57.68c0-33.9-15.98-62.6-41.12-74.69-12.99,8.12-26.75,11.34-40.33,12.63,5.7,15.49,8.57,31.22,8.57,46.95v72.8ZM242.82,453.25h213.64v-72.8c0-15.87-3.96-30.6-12.48-46.37l-.02-.04c-10.56-19.8-25.22-35.89-40.84-45.02-15.54,11.4-34.32,17.64-53.59,17.69-.07,0-.15,0-.22,0-19.31,0-37.96-6.23-53.26-17.68-16.34,9.44-32.75,27.02-41.27,44.66l-.06.12c-7.57,15.13-11.9,32.13-11.9,46.65v72.8ZM454.73,312.97c.34.52.67,1.04,1,1.57h.54c-.51-.53-1.03-1.05-1.54-1.57ZM223.46,201.09c-27.9,0-49.76,21.86-49.76,49.76,0,14.63,5.95,27.83,16.76,37.18,10.28,8.89,23.98,13.18,38,11.98,12.1-12.49,25.86-25.25,38.99-36.21-10.24-16.11-15.84-36.31-14.85-54.04-7.52-5.42-18.25-8.67-29.14-8.67ZM469.99,299.95c14.89,1.11,29.27-3.46,39.88-12.77,10.59-9.3,16.43-22.2,16.43-36.34,0-27.44-22.32-49.76-49.76-49.76-9.87,0-19.92,3.34-27.72,9.08.92,19.19-6.55,40.35-16.23,55.44,12.7,10.53,25.24,22.05,37.4,34.34ZM349.46,146.74c-34.58,0-62.72,28.3-62.72,63.08h0c0,16.77,6.6,32.61,18.58,44.59,11.92,11.92,27.6,18.49,44.14,18.49,34.78,0,63.08-28.3,63.08-63.08s-28.3-63.08-63.08-63.08Z"/>
</svg>
