<?xml version="1.0" encoding="UTF-8"?>
<svg id="Calque_1" xmlns="http://www.w3.org/2000/svg" version="1.1" viewBox="0 0 700 600">
  <path fill="currentColor" d="M534.4,491.5l-119.8-199.7V181.4h15.5c8.6,0,15.5-7,15.5-15.5s-7-15.5-15.5-15.5H275c-8.6,0-15.5,7-15.5,15.5s7,15.5,15.5,15.5h15.5v110.5L170.7,491.5c-8.8,14.7-4.1,33.8,10.7,42.6,4.8,2.9,10.3,4.4,15.9,4.4h310.6c17.2,0,31.1-13.9,31.1-31.1,0-5.6-1.5-11.1-4.4-16h0ZM319.2,304.1c1.5-2.4,2.2-5.2,2.2-8V181.4h62.1v114.8c0,2.8.8,5.6,2.2,8l74.2,123.8c-23.3,4.6-56.4,2.7-100.5-19.6-30.9-15.6-60.3-23.9-87.8-24.9l47.5-79.3ZM197.2,507.5l55.4-92.4c27.7-3.4,58.8,3.6,92.8,20.8,36.9,18.7,67.9,25,93.2,25,12.8,0,25.6-1.7,38-5.2l31.2,51.8H197.2Z"/>
</svg>
