<?xml version="1.0" encoding="UTF-8"?>
<svg id="Calque_1" xmlns="http://www.w3.org/2000/svg" version="1.1" viewBox="0 0 700 600">
  <!-- Generator: Adobe Illustrator 29.8.3, SVG Export Plug-In . SVG Version: 2.1.1 Build 3)  -->
  <path fill="currentColor" d="M593.82,485.68H106.18v-34.04h35.48c-4.2-7.99-6.47-16.96-6.4-25.72h-28.73v-34.04h438.98l-1.53-70.88-19.05-35.12h-184.77v-112.16h162.57l-14.09-25.36H106.54v-34.04h401.28l40.64,69.2v75.36l29.46,52.82,2.43,114.22h-59c-.06,9.11-2.27,17.94-6.37,25.72h78.83v34.04ZM242.24,451.64h89.05c-4.3-7.93-6.6-16.83-6.54-25.72h-76.04c.11,8.81-2.17,17.75-6.47,25.72ZM440,425.92c-.29,5.27,1.19,10.48,4.35,14.93,4.64,6.53,12.23,10.43,20.31,10.43,10.54,0,16.56-6.08,19.22-9.7,3.35-4.57,5.11-10.18,5.08-15.66h-48.96ZM357.31,425.92c-.24,5.38,1.31,10.67,4.55,15.17,4.67,6.48,11.96,10.2,20,10.2,10.79,0,16.86-6.21,19.51-9.91,3.27-4.57,4.88-10.03,4.67-15.45h-48.73ZM167.65,425.92c-.17,5.39,1.46,10.83,4.74,15.37,4.58,6.35,11.64,9.99,19.39,9.99s15.33-3.77,19.97-10.36c3.18-4.5,4.66-9.73,4.36-15h-48.46ZM374.22,251.83h140.2v-43.72h-140.2v43.72ZM272.34,311.43H106.54v-34.04h165.8v34.04ZM272.34,246.27H106.54v-34.04h165.8v34.04Z"/>
</svg>
