<?xml version="1.0" encoding="UTF-8"?>
<svg id="Calque_1" xmlns="http://www.w3.org/2000/svg" version="1.1" viewBox="0 0 700 600">
  <!-- Generator: Adobe Illustrator 29.8.3, SVG Export Plug-In . SVG Version: 2.1.1 Build 3)  -->
  <path fill="currentColor" d="M386.87,487.49h-134.64c-17.72,0-34.73-4.75-49.2-13.75l-41.47-25.49h-46.77v-34.04h56.37l49.56,30.27c9.45,5.79,20.63,8.97,31.51,8.97h134.64c9.79,0,20.39-2.78,29.85-7.82l.24-.13,125.33-62.48c7.16-4.29,10.3-12.4,7.84-20.25-2.43-7.75-11.05-14.34-21.27-11.99l-123.7,30.15c-5.88,21.97-25.94,37.8-49.25,37.8h-100.36v-34.04h100.36c9.41,0,17.36-7.95,17.36-17.36s-8.11-17.72-17.36-17.72h-78.48c-9.01,0-22.72-4.65-35.97-9.15-7.41-2.52-18.6-6.32-21.63-6.33h-105.04v-34.04h105.04c7.75,0,19.01,3.57,35.3,9.01,7.66,2.56,19.24,6.43,22.31,6.47h78.47c20.69,0,38.96,12.62,46.74,31.16l118.39-29.09c26.79-6.26,53.37,8.84,61.83,35.11l.04.12c7.19,23.37-2.9,48.02-24.53,59.94l-.35.19-125.04,62.52c-14.01,7.95-29.52,11.98-46.11,11.98ZM444.83,312.87c-31.7,0-59.54-19.58-70.47-48.58-8.96.49-16.77-.45-24.39-2.95-13.93,16.62-34.84,26.33-57.42,26.33-20.29,0-39.34-7.84-53.63-22.09-14.35-14.29-22.25-33.4-22.25-53.79,0-41.84,34.04-75.88,75.88-75.88,7.42,0,14.73,1.14,21.5,3.34,14.38-16.87,35.28-26.74,57.34-26.74,31.67,0,59.55,19.66,70.5,48.73,20.09-.61,38.85,5.95,53.54,18.87,16.06,14.13,25.27,34.73,25.27,56.51,0,42.04-34.04,76.24-75.88,76.24ZM407.54,255.1c6.53,14.3,20.75,23.74,36.93,23.74,23.27,0,42.2-18.93,42.2-42.2,0-12.46-4.98-23.59-14.03-31.33-7.47-6.4-16.83-9.75-26.92-9.75h-.02c-.19.89-.42,1.78-.68,2.66-1.57,24.35-15.86,45.71-37.48,56.9ZM293.33,170.26c-.57,0-1.14.01-1.72.04h-.24c-22.42.59-40.66,19.2-40.66,41.49s19.38,41.84,41.48,41.84c10.33,0,20.04-3.72,27.35-10.25-14.86-13.77-24.03-34.03-24.03-54.27,0-6.45.79-12.59,2.4-18.54-1.52-.21-3.04-.32-4.58-.32ZM371.39,146.55c-23.07,0-41.84,18.77-41.84,41.84s18.77,42.2,41.84,42.2,41.84-18.93,41.84-42.2-18.77-41.84-41.84-41.84Z"/>
</svg>
