<svg width="238" height="238" viewBox="0 0 238 238" fill="none" xmlns="http://www.w3.org/2000/svg">
<rect width="238" height="238" fill="white"/>
<mask id="mask0_1710_45303" style="mask-type:alpha" maskUnits="userSpaceOnUse" x="5" y="5" width="24" height="24">
<rect x="5" y="5" width="24" height="24" fill="#D9D9D9"/>
</mask>
<g mask="url(#mask0_1710_45303)">
<path d="M24 13C24.2833 13 24.5208 12.9042 24.7125 12.7125C24.9042 12.5208 25 12.2833 25 12C25 11.7167 24.9042 11.4792 24.7125 11.2875C24.5208 11.0958 24.2833 11 24 11C23.7167 11 23.4792 11.0958 23.2875 11.2875C23.0958 11.4792 23 11.7167 23 12C23 12.2833 23.0958 12.5208 23.2875 12.7125C23.4792 12.9042 23.7167 13 24 13ZM24 15C23.15 15 22.4375 14.7125 21.8625 14.1375C21.2875 13.5625 21 12.85 21 12C21 11.1667 21.2875 10.4583 21.8625 9.875C22.4375 9.29167 23.15 9 24 9C24.8333 9 25.5417 9.29167 26.125 9.875C26.7083 10.4583 27 11.1667 27 12C27 12.85 26.7083 13.5625 26.125 14.1375C25.5417 14.7125 24.8333 15 24 15ZM17 12C17.4167 12 17.7708 11.8583 18.0625 11.575C18.3542 11.2917 18.5 10.9333 18.5 10.5C18.5 10.0833 18.3542 9.72917 18.0625 9.4375C17.7708 9.14583 17.4167 9 17 9C16.5667 9 16.2083 9.14583 15.925 9.4375C15.6417 9.72917 15.5 10.0833 15.5 10.5C15.5 10.9333 15.6417 11.2917 15.925 11.575C16.2083 11.8583 16.5667 12 17 12ZM17 14C16.0167 14 15.1875 13.6625 14.5125 12.9875C13.8375 12.3125 13.5 11.4833 13.5 10.5C13.5 9.53333 13.8375 8.70833 14.5125 8.025C15.1875 7.34167 16.0167 7 17 7C17.9667 7 18.7917 7.34167 19.475 8.025C20.1583 8.70833 20.5 9.53333 20.5 10.5C20.5 11.4833 20.1583 12.3125 19.475 12.9875C18.7917 13.6625 17.9667 14 17 14ZM13 18.375C13 18.875 13.2667 19.4583 13.8 20.125C14.3333 20.7917 15.4 21.85 17 23.3C18.5667 21.8833 19.625 20.8417 20.175 20.175C20.725 19.5083 21 18.9083 21 18.375C21 17.9917 20.875 17.6667 20.625 17.4C20.375 17.1333 20.0667 17 19.7 17C19.4667 17 19.2458 17.05 19.0375 17.15C18.8292 17.25 18.6583 17.3917 18.525 17.575L17.325 19H16.65L15.45 17.575C15.3167 17.3917 15.1458 17.25 14.9375 17.15C14.7292 17.05 14.5167 17 14.3 17C13.9167 17 13.6042 17.1333 13.3625 17.4C13.1208 17.6667 13 17.9917 13 18.375ZM11 18.375C11 17.4917 11.3 16.7083 11.9 16.025C12.5 15.3417 13.3 15 14.3 15C14.8167 15 15.3125 15.1167 15.7875 15.35C16.2625 15.5833 16.6667 15.9 17 16.3C17.3333 15.9 17.7333 15.5833 18.2 15.35C18.6667 15.1167 19.1667 15 19.7 15C20.7 15 21.5 15.3458 22.1 16.0375C22.7 16.7292 23 17.5083 23 18.375C23 19.2583 22.6792 20.1292 22.0375 20.9875C21.3958 21.8458 20.0833 23.1833 18.1 25L17 26L15.9 25C13.8833 23.1667 12.5625 21.825 11.9375 20.975C11.3125 20.125 11 19.2583 11 18.375ZM10 13C10.2833 13 10.5208 12.9042 10.7125 12.7125C10.9042 12.5208 11 12.2833 11 12C11 11.7167 10.9042 11.4792 10.7125 11.2875C10.5208 11.0958 10.2833 11 10 11C9.71667 11 9.47917 11.0958 9.2875 11.2875C9.09583 11.4792 9 11.7167 9 12C9 12.2833 9.09583 12.5208 9.2875 12.7125C9.47917 12.9042 9.71667 13 10 13ZM17.075 27V25H25V18H22.05V16H25C25.55 16 26.0208 16.1958 26.4125 16.5875C26.8042 16.9792 27 17.45 27 18V27H17.075ZM9 25H17.075V27H7V18C7 17.45 7.19167 16.9792 7.575 16.5875C7.95833 16.1958 8.43333 16 9 16H11.95V18H9V25ZM10 15C9.15 15 8.4375 14.7125 7.8625 14.1375C7.2875 13.5625 7 12.85 7 12C7 11.1667 7.2875 10.4583 7.8625 9.875C8.4375 9.29167 9.15 9 10 9C10.8333 9 11.5417 9.29167 12.125 9.875C12.7083 10.4583 13 11.1667 13 12C13 12.85 12.7083 13.5625 12.125 14.1375C11.5417 14.7125 10.8333 15 10 15Z" fill="#FF0000"/>
</g>
<mask id="mask1_1710_45303" style="mask-type:alpha" maskUnits="userSpaceOnUse" x="39" y="5" width="24" height="24">
<rect x="39" y="5" width="24" height="24" fill="#D9D9D9"/>
</mask>
<g mask="url(#mask1_1710_45303)">
<path d="M46.3558 26.5V24.4807L49.2787 22.4288V18.4635L41.5 21.5865V19.1058L49.2787 13.6405V9.22125C49.2787 8.74808 49.4474 8.34292 49.7848 8.00575C50.1219 7.66858 50.527 7.5 51 7.5C51.473 7.5 51.8781 7.66858 52.2153 8.00575C52.5526 8.34292 52.7212 8.74808 52.7212 9.22125V13.6405L60.5 19.1058V21.5865L52.7212 18.4635V22.4288L55.6345 24.4807V26.5L51 25.096L46.3558 26.5Z" fill="#FF0000"/>
</g>
<mask id="mask2_1710_45303" style="mask-type:alpha" maskUnits="userSpaceOnUse" x="73" y="5" width="24" height="24">
<rect x="73" y="5" width="24" height="24" fill="#D9D9D9"/>
</mask>
<g mask="url(#mask2_1710_45303)">
<path d="M76 26V12H80V8H90V16H94V26H86V22H84V26H76ZM78 24H80V22H78V24ZM78 20H80V18H78V20ZM78 16H80V14H78V16ZM82 20H84V18H82V20ZM82 16H84V14H82V16ZM82 12H84V10H82V12ZM86 20H88V18H86V20ZM86 16H88V14H86V16ZM86 12H88V10H86V12ZM90 24H92V22H90V24ZM90 20H92V18H90V20Z" fill="#FF0000"/>
</g>
<mask id="mask3_1710_45303" style="mask-type:alpha" maskUnits="userSpaceOnUse" x="107" y="5" width="24" height="24">
<rect x="107" y="5" width="24" height="24" fill="#D9D9D9"/>
</mask>
<g mask="url(#mask3_1710_45303)">
<path d="M117.55 23.2L122.725 17H118.725L119.45 11.325L114.825 18H118.3L117.55 23.2ZM115 27L116 20H111L120 7H122L121 15H127L117 27H115Z" fill="#FF0000"/>
</g>
<mask id="mask4_1710_45303" style="mask-type:alpha" maskUnits="userSpaceOnUse" x="141" y="5" width="24" height="24">
<rect x="141" y="5" width="24" height="24" fill="#D9D9D9"/>
</mask>
<g mask="url(#mask4_1710_45303)">
<path d="M152.15 27C151.9 27 151.65 26.95 151.4 26.85C151.15 26.75 150.925 26.6 150.725 26.4L143.575 19.25C143.375 19.05 143.229 18.8292 143.138 18.5875C143.046 18.3458 143 18.1 143 17.85C143 17.6 143.046 17.35 143.138 17.1C143.229 16.85 143.375 16.625 143.575 16.425L152.375 7.6C152.558 7.41667 152.775 7.27083 153.025 7.1625C153.275 7.05417 153.533 7 153.8 7H160.975C161.525 7 161.996 7.19583 162.388 7.5875C162.779 7.97917 162.975 8.45 162.975 9V16.175C162.975 16.4417 162.925 16.6958 162.825 16.9375C162.725 17.1792 162.583 17.3917 162.4 17.575L153.575 26.4C153.375 26.6 153.15 26.75 152.9 26.85C152.65 26.95 152.4 27 152.15 27ZM152.15 25L160.975 16.15V9H153.825L145 17.85L152.15 25ZM158.475 13C158.892 13 159.246 12.8542 159.538 12.5625C159.829 12.2708 159.975 11.9167 159.975 11.5C159.975 11.0833 159.829 10.7292 159.538 10.4375C159.246 10.1458 158.892 10 158.475 10C158.058 10 157.704 10.1458 157.413 10.4375C157.121 10.7292 156.975 11.0833 156.975 11.5C156.975 11.9167 157.121 12.2708 157.413 12.5625C157.704 12.8542 158.058 13 158.475 13Z" fill="#FF0000"/>
</g>
<mask id="mask5_1710_45303" style="mask-type:alpha" maskUnits="userSpaceOnUse" x="175" y="5" width="24" height="24">
<rect x="175" y="5" width="24" height="24" fill="#D9D9D9"/>
</mask>
<g mask="url(#mask5_1710_45303)">
<path d="M181 25C180.45 25 179.979 24.8042 179.588 24.4125C179.196 24.0208 179 23.55 179 23C179 22.45 179.196 21.9792 179.588 21.5875C179.979 21.1958 180.45 21 181 21C181.55 21 182.021 21.1958 182.413 21.5875C182.804 21.9792 183 22.45 183 23C183 23.55 182.804 24.0208 182.413 24.4125C182.021 24.8042 181.55 25 181 25ZM187 25C186.45 25 185.979 24.8042 185.588 24.4125C185.196 24.0208 185 23.55 185 23C185 22.45 185.196 21.9792 185.588 21.5875C185.979 21.1958 186.45 21 187 21C187.55 21 188.021 21.1958 188.413 21.5875C188.804 21.9792 189 22.45 189 23C189 23.55 188.804 24.0208 188.413 24.4125C188.021 24.8042 187.55 25 187 25ZM193 25C192.45 25 191.979 24.8042 191.588 24.4125C191.196 24.0208 191 23.55 191 23C191 22.45 191.196 21.9792 191.588 21.5875C191.979 21.1958 192.45 21 193 21C193.55 21 194.021 21.1958 194.413 21.5875C194.804 21.9792 195 22.45 195 23C195 23.55 194.804 24.0208 194.413 24.4125C194.021 24.8042 193.55 25 193 25ZM181 19C180.45 19 179.979 18.8042 179.588 18.4125C179.196 18.0208 179 17.55 179 17C179 16.45 179.196 15.9792 179.588 15.5875C179.979 15.1958 180.45 15 181 15C181.55 15 182.021 15.1958 182.413 15.5875C182.804 15.9792 183 16.45 183 17C183 17.55 182.804 18.0208 182.413 18.4125C182.021 18.8042 181.55 19 181 19ZM187 19C186.45 19 185.979 18.8042 185.588 18.4125C185.196 18.0208 185 17.55 185 17C185 16.45 185.196 15.9792 185.588 15.5875C185.979 15.1958 186.45 15 187 15C187.55 15 188.021 15.1958 188.413 15.5875C188.804 15.9792 189 16.45 189 17C189 17.55 188.804 18.0208 188.413 18.4125C188.021 18.8042 187.55 19 187 19ZM193 19C192.45 19 191.979 18.8042 191.588 18.4125C191.196 18.0208 191 17.55 191 17C191 16.45 191.196 15.9792 191.588 15.5875C191.979 15.1958 192.45 15 193 15C193.55 15 194.021 15.1958 194.413 15.5875C194.804 15.9792 195 16.45 195 17C195 17.55 194.804 18.0208 194.413 18.4125C194.021 18.8042 193.55 19 193 19ZM181 13C180.45 13 179.979 12.8042 179.588 12.4125C179.196 12.0208 179 11.55 179 11C179 10.45 179.196 9.97917 179.588 9.5875C179.979 9.19583 180.45 9 181 9C181.55 9 182.021 9.19583 182.413 9.5875C182.804 9.97917 183 10.45 183 11C183 11.55 182.804 12.0208 182.413 12.4125C182.021 12.8042 181.55 13 181 13ZM187 13C186.45 13 185.979 12.8042 185.588 12.4125C185.196 12.0208 185 11.55 185 11C185 10.45 185.196 9.97917 185.588 9.5875C185.979 9.19583 186.45 9 187 9C187.55 9 188.021 9.19583 188.413 9.5875C188.804 9.97917 189 10.45 189 11C189 11.55 188.804 12.0208 188.413 12.4125C188.021 12.8042 187.55 13 187 13ZM193 13C192.45 13 191.979 12.8042 191.588 12.4125C191.196 12.0208 191 11.55 191 11C191 10.45 191.196 9.97917 191.588 9.5875C191.979 9.19583 192.45 9 193 9C193.55 9 194.021 9.19583 194.413 9.5875C194.804 9.97917 195 10.45 195 11C195 11.55 194.804 12.0208 194.413 12.4125C194.021 12.8042 193.55 13 193 13Z" fill="#FF0000"/>
</g>
<mask id="mask6_1710_45303" style="mask-type:alpha" maskUnits="userSpaceOnUse" x="209" y="5" width="24" height="24">
<rect x="209" y="5" width="24" height="24" fill="#D9D9D9"/>
</mask>
<g mask="url(#mask6_1710_45303)">
<path d="M215.5 25C213.967 25 212.667 24.4667 211.6 23.4C210.533 22.3333 210 21.0333 210 19.5C210 18.2 210.404 17.0542 211.212 16.0625C212.021 15.0708 213.033 14.4333 214.25 14.15C214.667 12.65 215.492 11.4167 216.725 10.45C217.958 9.48333 219.383 9 221 9C222.983 9 224.646 9.6875 225.988 11.0625C227.329 12.4375 228 14.0833 228 16C229.25 16.1333 230.229 16.65 230.938 17.55C231.646 18.45 232 19.425 232 20.475C232 21.725 231.562 22.7917 230.688 23.675C229.812 24.5583 228.75 25 227.5 25H215.5ZM215.5 23H227.5C228.2 23 228.792 22.7583 229.275 22.275C229.758 21.7917 230 21.2 230 20.5C230 19.8 229.758 19.2083 229.275 18.725C228.792 18.2417 228.2 18 227.5 18H226V16C226 14.6167 225.513 13.4375 224.538 12.4625C223.562 11.4875 222.383 11 221 11C219.95 11 219.017 11.2875 218.2 11.8625C217.383 12.4375 216.783 13.175 216.4 14.075C217.7 14.2917 218.792 14.9042 219.675 15.9125C220.558 16.9208 221 18.1167 221 19.5H219C219 18.5333 218.658 17.7083 217.975 17.025C217.292 16.3417 216.467 16 215.5 16C214.533 16 213.708 16.3417 213.025 17.025C212.342 17.7083 212 18.5333 212 19.5C212 20.4667 212.342 21.2917 213.025 21.975C213.708 22.6583 214.533 23 215.5 23Z" fill="#FF0000"/>
</g>
<mask id="mask7_1710_45303" style="mask-type:alpha" maskUnits="userSpaceOnUse" x="5" y="39" width="24" height="24">
<rect x="5" y="39" width="24" height="24" fill="#D9D9D9"/>
</mask>
<g mask="url(#mask7_1710_45303)">
<path d="M11.5 59C9.96667 59 8.66667 58.4667 7.6 57.4C6.53333 56.3333 6 55.0333 6 53.5C6 52.2 6.40417 51.0542 7.2125 50.0625C8.02083 49.0708 9.03333 48.4333 10.25 48.15C10.6667 46.65 11.4917 45.4167 12.725 44.45C13.9583 43.4833 15.3833 43 17 43C18.9833 43 20.6458 43.6875 21.9875 45.0625C23.3292 46.4375 24 48.0833 24 50C25.25 50.1333 26.2292 50.65 26.9375 51.55C27.6458 52.45 28 53.425 28 54.475C28 55.725 27.5625 56.7917 26.6875 57.675C25.8125 58.5583 24.75 59 23.5 59H11.5ZM11.5 57H23.5C24.2 57 24.7917 56.7583 25.275 56.275C25.7583 55.7917 26 55.2 26 54.5C26 53.8 25.7583 53.2083 25.275 52.725C24.7917 52.2417 24.2 52 23.5 52H22V50C22 48.6167 21.5125 47.4375 20.5375 46.4625C19.5625 45.4875 18.3833 45 17 45C15.95 45 15.0167 45.2875 14.2 45.8625C13.3833 46.4375 12.7833 47.175 12.4 48.075C13.7 48.2917 14.7917 48.9042 15.675 49.9125C16.5583 50.9208 17 52.1167 17 53.5H15C15 52.5333 14.6583 51.7083 13.975 51.025C13.2917 50.3417 12.4667 50 11.5 50C10.5333 50 9.70833 50.3417 9.025 51.025C8.34167 51.7083 8 52.5333 8 53.5C8 54.4667 8.34167 55.2917 9.025 55.975C9.70833 56.6583 10.5333 57 11.5 57Z" fill="#FF0000"/>
</g>
<mask id="mask8_1710_45303" style="mask-type:alpha" maskUnits="userSpaceOnUse" x="39" y="39" width="24" height="24">
<rect x="39" y="39" width="24" height="24" fill="#D9D9D9"/>
</mask>
<g mask="url(#mask8_1710_45303)">
<path d="M50.15 61C49.9 61 49.65 60.95 49.4 60.85C49.15 60.75 48.925 60.6 48.725 60.4L41.575 53.25C41.375 53.05 41.2292 52.8292 41.1375 52.5875C41.0458 52.3458 41 52.1 41 51.85C41 51.6 41.0458 51.35 41.1375 51.1C41.2292 50.85 41.375 50.625 41.575 50.425L50.375 41.6C50.5583 41.4167 50.775 41.2708 51.025 41.1625C51.275 41.0542 51.5333 41 51.8 41H58.975C59.525 41 59.9958 41.1958 60.3875 41.5875C60.7792 41.9792 60.975 42.45 60.975 43V50.175C60.975 50.4417 60.925 50.6958 60.825 50.9375C60.725 51.1792 60.5833 51.3917 60.4 51.575L51.575 60.4C51.375 60.6 51.15 60.75 50.9 60.85C50.65 60.95 50.4 61 50.15 61ZM50.15 59L58.975 50.15V43H51.825L43 51.85L50.15 59ZM56.475 47C56.8917 47 57.2458 46.8542 57.5375 46.5625C57.8292 46.2708 57.975 45.9167 57.975 45.5C57.975 45.0833 57.8292 44.7292 57.5375 44.4375C57.2458 44.1458 56.8917 44 56.475 44C56.0583 44 55.7042 44.1458 55.4125 44.4375C55.1208 44.7292 54.975 45.0833 54.975 45.5C54.975 45.9167 55.1208 46.2708 55.4125 46.5625C55.7042 46.8542 56.0583 47 56.475 47Z" fill="#FF0000"/>
</g>
<mask id="mask9_1710_45303" style="mask-type:alpha" maskUnits="userSpaceOnUse" x="73" y="39" width="24" height="24">
<rect x="73" y="39" width="24" height="24" fill="#D9D9D9"/>
</mask>
<g mask="url(#mask9_1710_45303)">
<path d="M92 47C92.2833 47 92.5208 46.9042 92.7125 46.7125C92.9042 46.5208 93 46.2833 93 46C93 45.7167 92.9042 45.4792 92.7125 45.2875C92.5208 45.0958 92.2833 45 92 45C91.7167 45 91.4792 45.0958 91.2875 45.2875C91.0958 45.4792 91 45.7167 91 46C91 46.2833 91.0958 46.5208 91.2875 46.7125C91.4792 46.9042 91.7167 47 92 47ZM92 49C91.15 49 90.4375 48.7125 89.8625 48.1375C89.2875 47.5625 89 46.85 89 46C89 45.1667 89.2875 44.4583 89.8625 43.875C90.4375 43.2917 91.15 43 92 43C92.8333 43 93.5417 43.2917 94.125 43.875C94.7083 44.4583 95 45.1667 95 46C95 46.85 94.7083 47.5625 94.125 48.1375C93.5417 48.7125 92.8333 49 92 49ZM85 46C85.4167 46 85.7708 45.8583 86.0625 45.575C86.3542 45.2917 86.5 44.9333 86.5 44.5C86.5 44.0833 86.3542 43.7292 86.0625 43.4375C85.7708 43.1458 85.4167 43 85 43C84.5667 43 84.2083 43.1458 83.925 43.4375C83.6417 43.7292 83.5 44.0833 83.5 44.5C83.5 44.9333 83.6417 45.2917 83.925 45.575C84.2083 45.8583 84.5667 46 85 46ZM85 48C84.0167 48 83.1875 47.6625 82.5125 46.9875C81.8375 46.3125 81.5 45.4833 81.5 44.5C81.5 43.5333 81.8375 42.7083 82.5125 42.025C83.1875 41.3417 84.0167 41 85 41C85.9667 41 86.7917 41.3417 87.475 42.025C88.1583 42.7083 88.5 43.5333 88.5 44.5C88.5 45.4833 88.1583 46.3125 87.475 46.9875C86.7917 47.6625 85.9667 48 85 48ZM81 52.375C81 52.875 81.2667 53.4583 81.8 54.125C82.3333 54.7917 83.4 55.85 85 57.3C86.5667 55.8833 87.625 54.8417 88.175 54.175C88.725 53.5083 89 52.9083 89 52.375C89 51.9917 88.875 51.6667 88.625 51.4C88.375 51.1333 88.0667 51 87.7 51C87.4667 51 87.2458 51.05 87.0375 51.15C86.8292 51.25 86.6583 51.3917 86.525 51.575L85.325 53H84.65L83.45 51.575C83.3167 51.3917 83.1458 51.25 82.9375 51.15C82.7292 51.05 82.5167 51 82.3 51C81.9167 51 81.6042 51.1333 81.3625 51.4C81.1208 51.6667 81 51.9917 81 52.375ZM79 52.375C79 51.4917 79.3 50.7083 79.9 50.025C80.5 49.3417 81.3 49 82.3 49C82.8167 49 83.3125 49.1167 83.7875 49.35C84.2625 49.5833 84.6667 49.9 85 50.3C85.3333 49.9 85.7333 49.5833 86.2 49.35C86.6667 49.1167 87.1667 49 87.7 49C88.7 49 89.5 49.3458 90.1 50.0375C90.7 50.7292 91 51.5083 91 52.375C91 53.2583 90.6792 54.1292 90.0375 54.9875C89.3958 55.8458 88.0833 57.1833 86.1 59L85 60L83.9 59C81.8833 57.1667 80.5625 55.825 79.9375 54.975C79.3125 54.125 79 53.2583 79 52.375ZM78 47C78.2833 47 78.5208 46.9042 78.7125 46.7125C78.9042 46.5208 79 46.2833 79 46C79 45.7167 78.9042 45.4792 78.7125 45.2875C78.5208 45.0958 78.2833 45 78 45C77.7167 45 77.4792 45.0958 77.2875 45.2875C77.0958 45.4792 77 45.7167 77 46C77 46.2833 77.0958 46.5208 77.2875 46.7125C77.4792 46.9042 77.7167 47 78 47ZM85.075 61V59H93V52H90.05V50H93C93.55 50 94.0208 50.1958 94.4125 50.5875C94.8042 50.9792 95 51.45 95 52V61H85.075ZM77 59H85.075V61H75V52C75 51.45 75.1917 50.9792 75.575 50.5875C75.9583 50.1958 76.4333 50 77 50H79.95V52H77V59ZM78 49C77.15 49 76.4375 48.7125 75.8625 48.1375C75.2875 47.5625 75 46.85 75 46C75 45.1667 75.2875 44.4583 75.8625 43.875C76.4375 43.2917 77.15 43 78 43C78.8333 43 79.5417 43.2917 80.125 43.875C80.7083 44.4583 81 45.1667 81 46C81 46.85 80.7083 47.5625 80.125 48.1375C79.5417 48.7125 78.8333 49 78 49Z" fill="#FF0000"/>
</g>
<mask id="mask10_1710_45303" style="mask-type:alpha" maskUnits="userSpaceOnUse" x="107" y="39" width="24" height="24">
<rect x="107" y="39" width="24" height="24" fill="#D9D9D9"/>
</mask>
<g mask="url(#mask10_1710_45303)">
<path d="M114.356 60.5V58.4807L117.279 56.4288V52.4635L109.5 55.5865V53.1058L117.279 47.6405V43.2212C117.279 42.7481 117.447 42.3429 117.785 42.0057C118.122 41.6686 118.527 41.5 119 41.5C119.473 41.5 119.878 41.6686 120.215 42.0057C120.553 42.3429 120.721 42.7481 120.721 43.2212V47.6405L128.5 53.1058V55.5865L120.721 52.4635V56.4288L123.635 58.4807V60.5L119 59.096L114.356 60.5Z" fill="#FF0000"/>
</g>
<mask id="mask11_1710_45303" style="mask-type:alpha" maskUnits="userSpaceOnUse" x="141" y="39" width="24" height="24">
<rect x="141" y="39" width="24" height="24" fill="#D9D9D9"/>
</mask>
<g mask="url(#mask11_1710_45303)">
<path d="M144 60V46H148V42H158V50H162V60H154V56H152V60H144ZM146 58H148V56H146V58ZM146 54H148V52H146V54ZM146 50H148V48H146V50ZM150 54H152V52H150V54ZM150 50H152V48H150V50ZM150 46H152V44H150V46ZM154 54H156V52H154V54ZM154 50H156V48H154V50ZM154 46H156V44H154V46ZM158 58H160V56H158V58ZM158 54H160V52H158V54Z" fill="#FF0000"/>
</g>
<mask id="mask12_1710_45303" style="mask-type:alpha" maskUnits="userSpaceOnUse" x="175" y="39" width="24" height="24">
<rect x="175" y="39" width="24" height="24" fill="#D9D9D9"/>
</mask>
<g mask="url(#mask12_1710_45303)">
<path d="M185.55 57.2L190.725 51H186.725L187.45 45.325L182.825 52H186.3L185.55 57.2ZM183 61L184 54H179L188 41H190L189 49H195L185 61H183Z" fill="#FF0000"/>
</g>
<mask id="mask13_1710_45303" style="mask-type:alpha" maskUnits="userSpaceOnUse" x="209" y="39" width="24" height="24">
<rect x="209" y="39" width="24" height="24" fill="#D9D9D9"/>
</mask>
<g mask="url(#mask13_1710_45303)">
<path d="M215 59C214.45 59 213.979 58.8042 213.588 58.4125C213.196 58.0208 213 57.55 213 57C213 56.45 213.196 55.9792 213.588 55.5875C213.979 55.1958 214.45 55 215 55C215.55 55 216.021 55.1958 216.413 55.5875C216.804 55.9792 217 56.45 217 57C217 57.55 216.804 58.0208 216.413 58.4125C216.021 58.8042 215.55 59 215 59ZM221 59C220.45 59 219.979 58.8042 219.588 58.4125C219.196 58.0208 219 57.55 219 57C219 56.45 219.196 55.9792 219.588 55.5875C219.979 55.1958 220.45 55 221 55C221.55 55 222.021 55.1958 222.413 55.5875C222.804 55.9792 223 56.45 223 57C223 57.55 222.804 58.0208 222.413 58.4125C222.021 58.8042 221.55 59 221 59ZM227 59C226.45 59 225.979 58.8042 225.588 58.4125C225.196 58.0208 225 57.55 225 57C225 56.45 225.196 55.9792 225.588 55.5875C225.979 55.1958 226.45 55 227 55C227.55 55 228.021 55.1958 228.413 55.5875C228.804 55.9792 229 56.45 229 57C229 57.55 228.804 58.0208 228.413 58.4125C228.021 58.8042 227.55 59 227 59ZM215 53C214.45 53 213.979 52.8042 213.588 52.4125C213.196 52.0208 213 51.55 213 51C213 50.45 213.196 49.9792 213.588 49.5875C213.979 49.1958 214.45 49 215 49C215.55 49 216.021 49.1958 216.413 49.5875C216.804 49.9792 217 50.45 217 51C217 51.55 216.804 52.0208 216.413 52.4125C216.021 52.8042 215.55 53 215 53ZM221 53C220.45 53 219.979 52.8042 219.588 52.4125C219.196 52.0208 219 51.55 219 51C219 50.45 219.196 49.9792 219.588 49.5875C219.979 49.1958 220.45 49 221 49C221.55 49 222.021 49.1958 222.413 49.5875C222.804 49.9792 223 50.45 223 51C223 51.55 222.804 52.0208 222.413 52.4125C222.021 52.8042 221.55 53 221 53ZM227 53C226.45 53 225.979 52.8042 225.588 52.4125C225.196 52.0208 225 51.55 225 51C225 50.45 225.196 49.9792 225.588 49.5875C225.979 49.1958 226.45 49 227 49C227.55 49 228.021 49.1958 228.413 49.5875C228.804 49.9792 229 50.45 229 51C229 51.55 228.804 52.0208 228.413 52.4125C228.021 52.8042 227.55 53 227 53ZM215 47C214.45 47 213.979 46.8042 213.588 46.4125C213.196 46.0208 213 45.55 213 45C213 44.45 213.196 43.9792 213.588 43.5875C213.979 43.1958 214.45 43 215 43C215.55 43 216.021 43.1958 216.413 43.5875C216.804 43.9792 217 44.45 217 45C217 45.55 216.804 46.0208 216.413 46.4125C216.021 46.8042 215.55 47 215 47ZM221 47C220.45 47 219.979 46.8042 219.588 46.4125C219.196 46.0208 219 45.55 219 45C219 44.45 219.196 43.9792 219.588 43.5875C219.979 43.1958 220.45 43 221 43C221.55 43 222.021 43.1958 222.413 43.5875C222.804 43.9792 223 44.45 223 45C223 45.55 222.804 46.0208 222.413 46.4125C222.021 46.8042 221.55 47 221 47ZM227 47C226.45 47 225.979 46.8042 225.588 46.4125C225.196 46.0208 225 45.55 225 45C225 44.45 225.196 43.9792 225.588 43.5875C225.979 43.1958 226.45 43 227 43C227.55 43 228.021 43.1958 228.413 43.5875C228.804 43.9792 229 44.45 229 45C229 45.55 228.804 46.0208 228.413 46.4125C228.021 46.8042 227.55 47 227 47Z" fill="#FF0000"/>
</g>
<mask id="mask14_1710_45303" style="mask-type:alpha" maskUnits="userSpaceOnUse" x="5" y="73" width="24" height="24">
<rect x="5" y="73" width="24" height="24" fill="#D9D9D9"/>
</mask>
<g mask="url(#mask14_1710_45303)">
<path d="M11 93C10.45 93 9.97917 92.8042 9.5875 92.4125C9.19583 92.0208 9 91.55 9 91C9 90.45 9.19583 89.9792 9.5875 89.5875C9.97917 89.1958 10.45 89 11 89C11.55 89 12.0208 89.1958 12.4125 89.5875C12.8042 89.9792 13 90.45 13 91C13 91.55 12.8042 92.0208 12.4125 92.4125C12.0208 92.8042 11.55 93 11 93ZM17 93C16.45 93 15.9792 92.8042 15.5875 92.4125C15.1958 92.0208 15 91.55 15 91C15 90.45 15.1958 89.9792 15.5875 89.5875C15.9792 89.1958 16.45 89 17 89C17.55 89 18.0208 89.1958 18.4125 89.5875C18.8042 89.9792 19 90.45 19 91C19 91.55 18.8042 92.0208 18.4125 92.4125C18.0208 92.8042 17.55 93 17 93ZM23 93C22.45 93 21.9792 92.8042 21.5875 92.4125C21.1958 92.0208 21 91.55 21 91C21 90.45 21.1958 89.9792 21.5875 89.5875C21.9792 89.1958 22.45 89 23 89C23.55 89 24.0208 89.1958 24.4125 89.5875C24.8042 89.9792 25 90.45 25 91C25 91.55 24.8042 92.0208 24.4125 92.4125C24.0208 92.8042 23.55 93 23 93ZM11 87C10.45 87 9.97917 86.8042 9.5875 86.4125C9.19583 86.0208 9 85.55 9 85C9 84.45 9.19583 83.9792 9.5875 83.5875C9.97917 83.1958 10.45 83 11 83C11.55 83 12.0208 83.1958 12.4125 83.5875C12.8042 83.9792 13 84.45 13 85C13 85.55 12.8042 86.0208 12.4125 86.4125C12.0208 86.8042 11.55 87 11 87ZM17 87C16.45 87 15.9792 86.8042 15.5875 86.4125C15.1958 86.0208 15 85.55 15 85C15 84.45 15.1958 83.9792 15.5875 83.5875C15.9792 83.1958 16.45 83 17 83C17.55 83 18.0208 83.1958 18.4125 83.5875C18.8042 83.9792 19 84.45 19 85C19 85.55 18.8042 86.0208 18.4125 86.4125C18.0208 86.8042 17.55 87 17 87ZM23 87C22.45 87 21.9792 86.8042 21.5875 86.4125C21.1958 86.0208 21 85.55 21 85C21 84.45 21.1958 83.9792 21.5875 83.5875C21.9792 83.1958 22.45 83 23 83C23.55 83 24.0208 83.1958 24.4125 83.5875C24.8042 83.9792 25 84.45 25 85C25 85.55 24.8042 86.0208 24.4125 86.4125C24.0208 86.8042 23.55 87 23 87ZM11 81C10.45 81 9.97917 80.8042 9.5875 80.4125C9.19583 80.0208 9 79.55 9 79C9 78.45 9.19583 77.9792 9.5875 77.5875C9.97917 77.1958 10.45 77 11 77C11.55 77 12.0208 77.1958 12.4125 77.5875C12.8042 77.9792 13 78.45 13 79C13 79.55 12.8042 80.0208 12.4125 80.4125C12.0208 80.8042 11.55 81 11 81ZM17 81C16.45 81 15.9792 80.8042 15.5875 80.4125C15.1958 80.0208 15 79.55 15 79C15 78.45 15.1958 77.9792 15.5875 77.5875C15.9792 77.1958 16.45 77 17 77C17.55 77 18.0208 77.1958 18.4125 77.5875C18.8042 77.9792 19 78.45 19 79C19 79.55 18.8042 80.0208 18.4125 80.4125C18.0208 80.8042 17.55 81 17 81ZM23 81C22.45 81 21.9792 80.8042 21.5875 80.4125C21.1958 80.0208 21 79.55 21 79C21 78.45 21.1958 77.9792 21.5875 77.5875C21.9792 77.1958 22.45 77 23 77C23.55 77 24.0208 77.1958 24.4125 77.5875C24.8042 77.9792 25 78.45 25 79C25 79.55 24.8042 80.0208 24.4125 80.4125C24.0208 80.8042 23.55 81 23 81Z" fill="#FF0000"/>
</g>
<mask id="mask15_1710_45303" style="mask-type:alpha" maskUnits="userSpaceOnUse" x="39" y="73" width="24" height="24">
<rect x="39" y="73" width="24" height="24" fill="#D9D9D9"/>
</mask>
<g mask="url(#mask15_1710_45303)">
<path d="M58 81C58.2833 81 58.5208 80.9042 58.7125 80.7125C58.9042 80.5208 59 80.2833 59 80C59 79.7167 58.9042 79.4792 58.7125 79.2875C58.5208 79.0958 58.2833 79 58 79C57.7167 79 57.4792 79.0958 57.2875 79.2875C57.0958 79.4792 57 79.7167 57 80C57 80.2833 57.0958 80.5208 57.2875 80.7125C57.4792 80.9042 57.7167 81 58 81ZM58 83C57.15 83 56.4375 82.7125 55.8625 82.1375C55.2875 81.5625 55 80.85 55 80C55 79.1667 55.2875 78.4583 55.8625 77.875C56.4375 77.2917 57.15 77 58 77C58.8333 77 59.5417 77.2917 60.125 77.875C60.7083 78.4583 61 79.1667 61 80C61 80.85 60.7083 81.5625 60.125 82.1375C59.5417 82.7125 58.8333 83 58 83ZM51 80C51.4167 80 51.7708 79.8583 52.0625 79.575C52.3542 79.2917 52.5 78.9333 52.5 78.5C52.5 78.0833 52.3542 77.7292 52.0625 77.4375C51.7708 77.1458 51.4167 77 51 77C50.5667 77 50.2083 77.1458 49.925 77.4375C49.6417 77.7292 49.5 78.0833 49.5 78.5C49.5 78.9333 49.6417 79.2917 49.925 79.575C50.2083 79.8583 50.5667 80 51 80ZM51 82C50.0167 82 49.1875 81.6625 48.5125 80.9875C47.8375 80.3125 47.5 79.4833 47.5 78.5C47.5 77.5333 47.8375 76.7083 48.5125 76.025C49.1875 75.3417 50.0167 75 51 75C51.9667 75 52.7917 75.3417 53.475 76.025C54.1583 76.7083 54.5 77.5333 54.5 78.5C54.5 79.4833 54.1583 80.3125 53.475 80.9875C52.7917 81.6625 51.9667 82 51 82ZM47 86.375C47 86.875 47.2667 87.4583 47.8 88.125C48.3333 88.7917 49.4 89.85 51 91.3C52.5667 89.8833 53.625 88.8417 54.175 88.175C54.725 87.5083 55 86.9083 55 86.375C55 85.9917 54.875 85.6667 54.625 85.4C54.375 85.1333 54.0667 85 53.7 85C53.4667 85 53.2458 85.05 53.0375 85.15C52.8292 85.25 52.6583 85.3917 52.525 85.575L51.325 87H50.65L49.45 85.575C49.3167 85.3917 49.1458 85.25 48.9375 85.15C48.7292 85.05 48.5167 85 48.3 85C47.9167 85 47.6042 85.1333 47.3625 85.4C47.1208 85.6667 47 85.9917 47 86.375ZM45 86.375C45 85.4917 45.3 84.7083 45.9 84.025C46.5 83.3417 47.3 83 48.3 83C48.8167 83 49.3125 83.1167 49.7875 83.35C50.2625 83.5833 50.6667 83.9 51 84.3C51.3333 83.9 51.7333 83.5833 52.2 83.35C52.6667 83.1167 53.1667 83 53.7 83C54.7 83 55.5 83.3458 56.1 84.0375C56.7 84.7292 57 85.5083 57 86.375C57 87.2583 56.6792 88.1292 56.0375 88.9875C55.3958 89.8458 54.0833 91.1833 52.1 93L51 94L49.9 93C47.8833 91.1667 46.5625 89.825 45.9375 88.975C45.3125 88.125 45 87.2583 45 86.375ZM44 81C44.2833 81 44.5208 80.9042 44.7125 80.7125C44.9042 80.5208 45 80.2833 45 80C45 79.7167 44.9042 79.4792 44.7125 79.2875C44.5208 79.0958 44.2833 79 44 79C43.7167 79 43.4792 79.0958 43.2875 79.2875C43.0958 79.4792 43 79.7167 43 80C43 80.2833 43.0958 80.5208 43.2875 80.7125C43.4792 80.9042 43.7167 81 44 81ZM51.075 95V93H59V86H56.05V84H59C59.55 84 60.0208 84.1958 60.4125 84.5875C60.8042 84.9792 61 85.45 61 86V95H51.075ZM43 93H51.075V95H41V86C41 85.45 41.1917 84.9792 41.575 84.5875C41.9583 84.1958 42.4333 84 43 84H45.95V86H43V93ZM44 83C43.15 83 42.4375 82.7125 41.8625 82.1375C41.2875 81.5625 41 80.85 41 80C41 79.1667 41.2875 78.4583 41.8625 77.875C42.4375 77.2917 43.15 77 44 77C44.8333 77 45.5417 77.2917 46.125 77.875C46.7083 78.4583 47 79.1667 47 80C47 80.85 46.7083 81.5625 46.125 82.1375C45.5417 82.7125 44.8333 83 44 83Z" fill="#FF0000"/>
</g>
<mask id="mask16_1710_45303" style="mask-type:alpha" maskUnits="userSpaceOnUse" x="73" y="73" width="24" height="24">
<rect x="73" y="73" width="24" height="24" fill="#D9D9D9"/>
</mask>
<g mask="url(#mask16_1710_45303)">
<path d="M79.5 93C77.9667 93 76.6667 92.4667 75.6 91.4C74.5333 90.3333 74 89.0333 74 87.5C74 86.2 74.4042 85.0542 75.2125 84.0625C76.0208 83.0708 77.0333 82.4333 78.25 82.15C78.6667 80.65 79.4917 79.4167 80.725 78.45C81.9583 77.4833 83.3833 77 85 77C86.9833 77 88.6458 77.6875 89.9875 79.0625C91.3292 80.4375 92 82.0833 92 84C93.25 84.1333 94.2292 84.65 94.9375 85.55C95.6458 86.45 96 87.425 96 88.475C96 89.725 95.5625 90.7917 94.6875 91.675C93.8125 92.5583 92.75 93 91.5 93H79.5ZM79.5 91H91.5C92.2 91 92.7917 90.7583 93.275 90.275C93.7583 89.7917 94 89.2 94 88.5C94 87.8 93.7583 87.2083 93.275 86.725C92.7917 86.2417 92.2 86 91.5 86H90V84C90 82.6167 89.5125 81.4375 88.5375 80.4625C87.5625 79.4875 86.3833 79 85 79C83.95 79 83.0167 79.2875 82.2 79.8625C81.3833 80.4375 80.7833 81.175 80.4 82.075C81.7 82.2917 82.7917 82.9042 83.675 83.9125C84.5583 84.9208 85 86.1167 85 87.5H83C83 86.5333 82.6583 85.7083 81.975 85.025C81.2917 84.3417 80.4667 84 79.5 84C78.5333 84 77.7083 84.3417 77.025 85.025C76.3417 85.7083 76 86.5333 76 87.5C76 88.4667 76.3417 89.2917 77.025 89.975C77.7083 90.6583 78.5333 91 79.5 91Z" fill="#FF0000"/>
</g>
<mask id="mask17_1710_45303" style="mask-type:alpha" maskUnits="userSpaceOnUse" x="107" y="73" width="24" height="24">
<rect x="107" y="73" width="24" height="24" fill="#D9D9D9"/>
</mask>
<g mask="url(#mask17_1710_45303)">
<path d="M117.55 91.2L122.725 85H118.725L119.45 79.325L114.825 86H118.3L117.55 91.2ZM115 95L116 88H111L120 75H122L121 83H127L117 95H115Z" fill="#FF0000"/>
</g>
<mask id="mask18_1710_45303" style="mask-type:alpha" maskUnits="userSpaceOnUse" x="141" y="73" width="24" height="24">
<rect x="141" y="73" width="24" height="24" fill="#D9D9D9"/>
</mask>
<g mask="url(#mask18_1710_45303)">
<path d="M148.356 94.5V92.4807L151.279 90.4288V86.4635L143.5 89.5865V87.1058L151.279 81.6405V77.2212C151.279 76.7481 151.447 76.3429 151.785 76.0057C152.122 75.6686 152.527 75.5 153 75.5C153.473 75.5 153.878 75.6686 154.215 76.0057C154.553 76.3429 154.721 76.7481 154.721 77.2212V81.6405L162.5 87.1058V89.5865L154.721 86.4635V90.4288L157.635 92.4807V94.5L153 93.096L148.356 94.5Z" fill="#FF0000"/>
</g>
<mask id="mask19_1710_45303" style="mask-type:alpha" maskUnits="userSpaceOnUse" x="175" y="73" width="24" height="24">
<rect x="175" y="73" width="24" height="24" fill="#D9D9D9"/>
</mask>
<g mask="url(#mask19_1710_45303)">
<path d="M186.15 95C185.9 95 185.65 94.95 185.4 94.85C185.15 94.75 184.925 94.6 184.725 94.4L177.575 87.25C177.375 87.05 177.229 86.8292 177.138 86.5875C177.046 86.3458 177 86.1 177 85.85C177 85.6 177.046 85.35 177.138 85.1C177.229 84.85 177.375 84.625 177.575 84.425L186.375 75.6C186.558 75.4167 186.775 75.2708 187.025 75.1625C187.275 75.0542 187.533 75 187.8 75H194.975C195.525 75 195.996 75.1958 196.388 75.5875C196.779 75.9792 196.975 76.45 196.975 77V84.175C196.975 84.4417 196.925 84.6958 196.825 84.9375C196.725 85.1792 196.583 85.3917 196.4 85.575L187.575 94.4C187.375 94.6 187.15 94.75 186.9 94.85C186.65 94.95 186.4 95 186.15 95ZM186.15 93L194.975 84.15V77H187.825L179 85.85L186.15 93ZM192.475 81C192.892 81 193.246 80.8542 193.538 80.5625C193.829 80.2708 193.975 79.9167 193.975 79.5C193.975 79.0833 193.829 78.7292 193.538 78.4375C193.246 78.1458 192.892 78 192.475 78C192.058 78 191.704 78.1458 191.413 78.4375C191.121 78.7292 190.975 79.0833 190.975 79.5C190.975 79.9167 191.121 80.2708 191.413 80.5625C191.704 80.8542 192.058 81 192.475 81Z" fill="#FF0000"/>
</g>
<mask id="mask20_1710_45303" style="mask-type:alpha" maskUnits="userSpaceOnUse" x="209" y="73" width="24" height="24">
<rect x="209" y="73" width="24" height="24" fill="#D9D9D9"/>
</mask>
<g mask="url(#mask20_1710_45303)">
<path d="M212 94V80H216V76H226V84H230V94H222V90H220V94H212ZM214 92H216V90H214V92ZM214 88H216V86H214V88ZM214 84H216V82H214V84ZM218 88H220V86H218V88ZM218 84H220V82H218V84ZM218 80H220V78H218V80ZM222 88H224V86H222V88ZM222 84H224V82H222V84ZM222 80H224V78H222V80ZM226 92H228V90H226V92ZM226 88H228V86H226V88Z" fill="#FF0000"/>
</g>
<mask id="mask21_1710_45303" style="mask-type:alpha" maskUnits="userSpaceOnUse" x="5" y="107" width="24" height="24">
<rect x="5" y="107" width="24" height="24" fill="#D9D9D9"/>
</mask>
<g mask="url(#mask21_1710_45303)">
<path d="M12.3558 128.5V126.481L15.2787 124.429V120.464L7.5 123.586V121.106L15.2787 115.641V111.221C15.2787 110.748 15.4474 110.343 15.7848 110.006C16.1219 109.669 16.527 109.5 17 109.5C17.473 109.5 17.8781 109.669 18.2153 110.006C18.5526 110.343 18.7212 110.748 18.7212 111.221V115.641L26.5 121.106V123.586L18.7212 120.464V124.429L21.6345 126.481V128.5L17 127.096L12.3558 128.5Z" fill="#FF0000"/>
</g>
<mask id="mask22_1710_45303" style="mask-type:alpha" maskUnits="userSpaceOnUse" x="39" y="107" width="24" height="24">
<rect x="39" y="107" width="24" height="24" fill="#D9D9D9"/>
</mask>
<g mask="url(#mask22_1710_45303)">
<path d="M42 128V114H46V110H56V118H60V128H52V124H50V128H42ZM44 126H46V124H44V126ZM44 122H46V120H44V122ZM44 118H46V116H44V118ZM48 122H50V120H48V122ZM48 118H50V116H48V118ZM48 114H50V112H48V114ZM52 122H54V120H52V122ZM52 118H54V116H52V118ZM52 114H54V112H52V114ZM56 126H58V124H56V126ZM56 122H58V120H56V122Z" fill="#FF0000"/>
</g>
<mask id="mask23_1710_45303" style="mask-type:alpha" maskUnits="userSpaceOnUse" x="73" y="107" width="24" height="24">
<rect x="73" y="107" width="24" height="24" fill="#D9D9D9"/>
</mask>
<g mask="url(#mask23_1710_45303)">
<path d="M79 127C78.45 127 77.9792 126.804 77.5875 126.413C77.1958 126.021 77 125.55 77 125C77 124.45 77.1958 123.979 77.5875 123.588C77.9792 123.196 78.45 123 79 123C79.55 123 80.0208 123.196 80.4125 123.588C80.8042 123.979 81 124.45 81 125C81 125.55 80.8042 126.021 80.4125 126.413C80.0208 126.804 79.55 127 79 127ZM85 127C84.45 127 83.9792 126.804 83.5875 126.413C83.1958 126.021 83 125.55 83 125C83 124.45 83.1958 123.979 83.5875 123.588C83.9792 123.196 84.45 123 85 123C85.55 123 86.0208 123.196 86.4125 123.588C86.8042 123.979 87 124.45 87 125C87 125.55 86.8042 126.021 86.4125 126.413C86.0208 126.804 85.55 127 85 127ZM91 127C90.45 127 89.9792 126.804 89.5875 126.413C89.1958 126.021 89 125.55 89 125C89 124.45 89.1958 123.979 89.5875 123.588C89.9792 123.196 90.45 123 91 123C91.55 123 92.0208 123.196 92.4125 123.588C92.8042 123.979 93 124.45 93 125C93 125.55 92.8042 126.021 92.4125 126.413C92.0208 126.804 91.55 127 91 127ZM79 121C78.45 121 77.9792 120.804 77.5875 120.413C77.1958 120.021 77 119.55 77 119C77 118.45 77.1958 117.979 77.5875 117.588C77.9792 117.196 78.45 117 79 117C79.55 117 80.0208 117.196 80.4125 117.588C80.8042 117.979 81 118.45 81 119C81 119.55 80.8042 120.021 80.4125 120.413C80.0208 120.804 79.55 121 79 121ZM85 121C84.45 121 83.9792 120.804 83.5875 120.413C83.1958 120.021 83 119.55 83 119C83 118.45 83.1958 117.979 83.5875 117.588C83.9792 117.196 84.45 117 85 117C85.55 117 86.0208 117.196 86.4125 117.588C86.8042 117.979 87 118.45 87 119C87 119.55 86.8042 120.021 86.4125 120.413C86.0208 120.804 85.55 121 85 121ZM91 121C90.45 121 89.9792 120.804 89.5875 120.413C89.1958 120.021 89 119.55 89 119C89 118.45 89.1958 117.979 89.5875 117.588C89.9792 117.196 90.45 117 91 117C91.55 117 92.0208 117.196 92.4125 117.588C92.8042 117.979 93 118.45 93 119C93 119.55 92.8042 120.021 92.4125 120.413C92.0208 120.804 91.55 121 91 121ZM79 115C78.45 115 77.9792 114.804 77.5875 114.413C77.1958 114.021 77 113.55 77 113C77 112.45 77.1958 111.979 77.5875 111.588C77.9792 111.196 78.45 111 79 111C79.55 111 80.0208 111.196 80.4125 111.588C80.8042 111.979 81 112.45 81 113C81 113.55 80.8042 114.021 80.4125 114.413C80.0208 114.804 79.55 115 79 115ZM85 115C84.45 115 83.9792 114.804 83.5875 114.413C83.1958 114.021 83 113.55 83 113C83 112.45 83.1958 111.979 83.5875 111.588C83.9792 111.196 84.45 111 85 111C85.55 111 86.0208 111.196 86.4125 111.588C86.8042 111.979 87 112.45 87 113C87 113.55 86.8042 114.021 86.4125 114.413C86.0208 114.804 85.55 115 85 115ZM91 115C90.45 115 89.9792 114.804 89.5875 114.413C89.1958 114.021 89 113.55 89 113C89 112.45 89.1958 111.979 89.5875 111.588C89.9792 111.196 90.45 111 91 111C91.55 111 92.0208 111.196 92.4125 111.588C92.8042 111.979 93 112.45 93 113C93 113.55 92.8042 114.021 92.4125 114.413C92.0208 114.804 91.55 115 91 115Z" fill="#FF0000"/>
</g>
<mask id="mask24_1710_45303" style="mask-type:alpha" maskUnits="userSpaceOnUse" x="107" y="107" width="24" height="24">
<rect x="107" y="107" width="24" height="24" fill="#D9D9D9"/>
</mask>
<g mask="url(#mask24_1710_45303)">
<path d="M118.15 129C117.9 129 117.65 128.95 117.4 128.85C117.15 128.75 116.925 128.6 116.725 128.4L109.575 121.25C109.375 121.05 109.229 120.829 109.138 120.588C109.046 120.346 109 120.1 109 119.85C109 119.6 109.046 119.35 109.138 119.1C109.229 118.85 109.375 118.625 109.575 118.425L118.375 109.6C118.558 109.417 118.775 109.271 119.025 109.163C119.275 109.054 119.533 109 119.8 109H126.975C127.525 109 127.996 109.196 128.388 109.588C128.779 109.979 128.975 110.45 128.975 111V118.175C128.975 118.442 128.925 118.696 128.825 118.938C128.725 119.179 128.583 119.392 128.4 119.575L119.575 128.4C119.375 128.6 119.15 128.75 118.9 128.85C118.65 128.95 118.4 129 118.15 129ZM118.15 127L126.975 118.15V111H119.825L111 119.85L118.15 127ZM124.475 115C124.892 115 125.246 114.854 125.538 114.562C125.829 114.271 125.975 113.917 125.975 113.5C125.975 113.083 125.829 112.729 125.538 112.438C125.246 112.146 124.892 112 124.475 112C124.058 112 123.704 112.146 123.413 112.438C123.121 112.729 122.975 113.083 122.975 113.5C122.975 113.917 123.121 114.271 123.413 114.562C123.704 114.854 124.058 115 124.475 115Z" fill="#FF0000"/>
</g>
<mask id="mask25_1710_45303" style="mask-type:alpha" maskUnits="userSpaceOnUse" x="141" y="107" width="24" height="24">
<rect x="141" y="107" width="24" height="24" fill="#D9D9D9"/>
</mask>
<g mask="url(#mask25_1710_45303)">
<path d="M147.5 127C145.967 127 144.667 126.467 143.6 125.4C142.533 124.333 142 123.033 142 121.5C142 120.2 142.404 119.054 143.212 118.062C144.021 117.071 145.033 116.433 146.25 116.15C146.667 114.65 147.492 113.417 148.725 112.45C149.958 111.483 151.383 111 153 111C154.983 111 156.646 111.688 157.988 113.062C159.329 114.438 160 116.083 160 118C161.25 118.133 162.229 118.65 162.938 119.55C163.646 120.45 164 121.425 164 122.475C164 123.725 163.562 124.792 162.688 125.675C161.812 126.558 160.75 127 159.5 127H147.5ZM147.5 125H159.5C160.2 125 160.792 124.758 161.275 124.275C161.758 123.792 162 123.2 162 122.5C162 121.8 161.758 121.208 161.275 120.725C160.792 120.242 160.2 120 159.5 120H158V118C158 116.617 157.513 115.438 156.538 114.463C155.562 113.488 154.383 113 153 113C151.95 113 151.017 113.287 150.2 113.862C149.383 114.438 148.783 115.175 148.4 116.075C149.7 116.292 150.792 116.904 151.675 117.912C152.558 118.921 153 120.117 153 121.5H151C151 120.533 150.658 119.708 149.975 119.025C149.292 118.342 148.467 118 147.5 118C146.533 118 145.708 118.342 145.025 119.025C144.342 119.708 144 120.533 144 121.5C144 122.467 144.342 123.292 145.025 123.975C145.708 124.658 146.533 125 147.5 125Z" fill="#FF0000"/>
</g>
<mask id="mask26_1710_45303" style="mask-type:alpha" maskUnits="userSpaceOnUse" x="175" y="107" width="24" height="24">
<rect x="175" y="107" width="24" height="24" fill="#D9D9D9"/>
</mask>
<g mask="url(#mask26_1710_45303)">
<path d="M194 115C194.283 115 194.521 114.904 194.712 114.713C194.904 114.521 195 114.283 195 114C195 113.717 194.904 113.479 194.712 113.287C194.521 113.096 194.283 113 194 113C193.717 113 193.479 113.096 193.288 113.287C193.096 113.479 193 113.717 193 114C193 114.283 193.096 114.521 193.288 114.713C193.479 114.904 193.717 115 194 115ZM194 117C193.15 117 192.438 116.713 191.863 116.138C191.288 115.563 191 114.85 191 114C191 113.167 191.288 112.458 191.863 111.875C192.438 111.292 193.15 111 194 111C194.833 111 195.542 111.292 196.125 111.875C196.708 112.458 197 113.167 197 114C197 114.85 196.708 115.563 196.125 116.138C195.542 116.713 194.833 117 194 117ZM187 114C187.417 114 187.771 113.858 188.062 113.575C188.354 113.292 188.5 112.933 188.5 112.5C188.5 112.083 188.354 111.729 188.062 111.438C187.771 111.146 187.417 111 187 111C186.567 111 186.208 111.146 185.925 111.438C185.642 111.729 185.5 112.083 185.5 112.5C185.5 112.933 185.642 113.292 185.925 113.575C186.208 113.858 186.567 114 187 114ZM187 116C186.017 116 185.188 115.663 184.513 114.988C183.838 114.312 183.5 113.483 183.5 112.5C183.5 111.533 183.838 110.708 184.513 110.025C185.188 109.342 186.017 109 187 109C187.967 109 188.792 109.342 189.475 110.025C190.158 110.708 190.5 111.533 190.5 112.5C190.5 113.483 190.158 114.312 189.475 114.988C188.792 115.663 187.967 116 187 116ZM183 120.375C183 120.875 183.267 121.458 183.8 122.125C184.333 122.792 185.4 123.85 187 125.3C188.567 123.883 189.625 122.842 190.175 122.175C190.725 121.508 191 120.908 191 120.375C191 119.992 190.875 119.667 190.625 119.4C190.375 119.133 190.067 119 189.7 119C189.467 119 189.246 119.05 189.038 119.15C188.829 119.25 188.658 119.392 188.525 119.575L187.325 121H186.65L185.45 119.575C185.317 119.392 185.146 119.25 184.938 119.15C184.729 119.05 184.517 119 184.3 119C183.917 119 183.604 119.133 183.363 119.4C183.121 119.667 183 119.992 183 120.375ZM181 120.375C181 119.492 181.3 118.708 181.9 118.025C182.5 117.342 183.3 117 184.3 117C184.817 117 185.312 117.117 185.788 117.35C186.263 117.583 186.667 117.9 187 118.3C187.333 117.9 187.733 117.583 188.2 117.35C188.667 117.117 189.167 117 189.7 117C190.7 117 191.5 117.346 192.1 118.038C192.7 118.729 193 119.508 193 120.375C193 121.258 192.679 122.129 192.038 122.988C191.396 123.846 190.083 125.183 188.1 127L187 128L185.9 127C183.883 125.167 182.562 123.825 181.938 122.975C181.312 122.125 181 121.258 181 120.375ZM180 115C180.283 115 180.521 114.904 180.713 114.713C180.904 114.521 181 114.283 181 114C181 113.717 180.904 113.479 180.713 113.287C180.521 113.096 180.283 113 180 113C179.717 113 179.479 113.096 179.288 113.287C179.096 113.479 179 113.717 179 114C179 114.283 179.096 114.521 179.288 114.713C179.479 114.904 179.717 115 180 115ZM187.075 129V127H195V120H192.05V118H195C195.55 118 196.021 118.196 196.413 118.588C196.804 118.979 197 119.45 197 120V129H187.075ZM179 127H187.075V129H177V120C177 119.45 177.192 118.979 177.575 118.588C177.958 118.196 178.433 118 179 118H181.95V120H179V127ZM180 117C179.15 117 178.438 116.713 177.863 116.138C177.288 115.563 177 114.85 177 114C177 113.167 177.288 112.458 177.863 111.875C178.438 111.292 179.15 111 180 111C180.833 111 181.542 111.292 182.125 111.875C182.708 112.458 183 113.167 183 114C183 114.85 182.708 115.563 182.125 116.138C181.542 116.713 180.833 117 180 117Z" fill="#FF0000"/>
</g>
<mask id="mask27_1710_45303" style="mask-type:alpha" maskUnits="userSpaceOnUse" x="209" y="107" width="24" height="24">
<rect x="209" y="107" width="24" height="24" fill="#D9D9D9"/>
</mask>
<g mask="url(#mask27_1710_45303)">
<path d="M219.55 125.2L224.725 119H220.725L221.45 113.325L216.825 120H220.3L219.55 125.2ZM217 129L218 122H213L222 109H224L223 117H229L219 129H217Z" fill="#FF0000"/>
</g>
<mask id="mask28_1710_45303" style="mask-type:alpha" maskUnits="userSpaceOnUse" x="5" y="141" width="24" height="24">
<rect x="5" y="141" width="24" height="24" fill="#D9D9D9"/>
</mask>
<g mask="url(#mask28_1710_45303)">
<path d="M15.55 159.2L20.725 153H16.725L17.45 147.325L12.825 154H16.3L15.55 159.2ZM13 163L14 156H9L18 143H20L19 151H25L15 163H13Z" fill="#FF0000"/>
</g>
<mask id="mask29_1710_45303" style="mask-type:alpha" maskUnits="userSpaceOnUse" x="39" y="141" width="24" height="24">
<rect x="39" y="141" width="24" height="24" fill="#D9D9D9"/>
</mask>
<g mask="url(#mask29_1710_45303)">
<path d="M50.15 163C49.9 163 49.65 162.95 49.4 162.85C49.15 162.75 48.925 162.6 48.725 162.4L41.575 155.25C41.375 155.05 41.2292 154.829 41.1375 154.588C41.0458 154.346 41 154.1 41 153.85C41 153.6 41.0458 153.35 41.1375 153.1C41.2292 152.85 41.375 152.625 41.575 152.425L50.375 143.6C50.5583 143.417 50.775 143.271 51.025 143.163C51.275 143.054 51.5333 143 51.8 143H58.975C59.525 143 59.9958 143.196 60.3875 143.588C60.7792 143.979 60.975 144.45 60.975 145V152.175C60.975 152.442 60.925 152.696 60.825 152.938C60.725 153.179 60.5833 153.392 60.4 153.575L51.575 162.4C51.375 162.6 51.15 162.75 50.9 162.85C50.65 162.95 50.4 163 50.15 163ZM50.15 161L58.975 152.15V145H51.825L43 153.85L50.15 161ZM56.475 149C56.8917 149 57.2458 148.854 57.5375 148.562C57.8292 148.271 57.975 147.917 57.975 147.5C57.975 147.083 57.8292 146.729 57.5375 146.438C57.2458 146.146 56.8917 146 56.475 146C56.0583 146 55.7042 146.146 55.4125 146.438C55.1208 146.729 54.975 147.083 54.975 147.5C54.975 147.917 55.1208 148.271 55.4125 148.562C55.7042 148.854 56.0583 149 56.475 149Z" fill="#FF0000"/>
</g>
<mask id="mask30_1710_45303" style="mask-type:alpha" maskUnits="userSpaceOnUse" x="73" y="141" width="24" height="24">
<rect x="73" y="141" width="24" height="24" fill="#D9D9D9"/>
</mask>
<g mask="url(#mask30_1710_45303)">
<path d="M79.5 161C77.9667 161 76.6667 160.467 75.6 159.4C74.5333 158.333 74 157.033 74 155.5C74 154.2 74.4042 153.054 75.2125 152.062C76.0208 151.071 77.0333 150.433 78.25 150.15C78.6667 148.65 79.4917 147.417 80.725 146.45C81.9583 145.483 83.3833 145 85 145C86.9833 145 88.6458 145.688 89.9875 147.062C91.3292 148.438 92 150.083 92 152C93.25 152.133 94.2292 152.65 94.9375 153.55C95.6458 154.45 96 155.425 96 156.475C96 157.725 95.5625 158.792 94.6875 159.675C93.8125 160.558 92.75 161 91.5 161H79.5ZM79.5 159H91.5C92.2 159 92.7917 158.758 93.275 158.275C93.7583 157.792 94 157.2 94 156.5C94 155.8 93.7583 155.208 93.275 154.725C92.7917 154.242 92.2 154 91.5 154H90V152C90 150.617 89.5125 149.438 88.5375 148.463C87.5625 147.488 86.3833 147 85 147C83.95 147 83.0167 147.287 82.2 147.862C81.3833 148.438 80.7833 149.175 80.4 150.075C81.7 150.292 82.7917 150.904 83.675 151.912C84.5583 152.921 85 154.117 85 155.5H83C83 154.533 82.6583 153.708 81.975 153.025C81.2917 152.342 80.4667 152 79.5 152C78.5333 152 77.7083 152.342 77.025 153.025C76.3417 153.708 76 154.533 76 155.5C76 156.467 76.3417 157.292 77.025 157.975C77.7083 158.658 78.5333 159 79.5 159Z" fill="#FF0000"/>
</g>
<mask id="mask31_1710_45303" style="mask-type:alpha" maskUnits="userSpaceOnUse" x="107" y="141" width="24" height="24">
<rect x="107" y="141" width="24" height="24" fill="#D9D9D9"/>
</mask>
<g mask="url(#mask31_1710_45303)">
<path d="M126 149C126.283 149 126.521 148.904 126.712 148.713C126.904 148.521 127 148.283 127 148C127 147.717 126.904 147.479 126.712 147.287C126.521 147.096 126.283 147 126 147C125.717 147 125.479 147.096 125.288 147.287C125.096 147.479 125 147.717 125 148C125 148.283 125.096 148.521 125.288 148.713C125.479 148.904 125.717 149 126 149ZM126 151C125.15 151 124.438 150.713 123.863 150.138C123.288 149.563 123 148.85 123 148C123 147.167 123.288 146.458 123.863 145.875C124.438 145.292 125.15 145 126 145C126.833 145 127.542 145.292 128.125 145.875C128.708 146.458 129 147.167 129 148C129 148.85 128.708 149.563 128.125 150.138C127.542 150.713 126.833 151 126 151ZM119 148C119.417 148 119.771 147.858 120.062 147.575C120.354 147.292 120.5 146.933 120.5 146.5C120.5 146.083 120.354 145.729 120.062 145.438C119.771 145.146 119.417 145 119 145C118.567 145 118.208 145.146 117.925 145.438C117.642 145.729 117.5 146.083 117.5 146.5C117.5 146.933 117.642 147.292 117.925 147.575C118.208 147.858 118.567 148 119 148ZM119 150C118.017 150 117.188 149.663 116.513 148.988C115.838 148.312 115.5 147.483 115.5 146.5C115.5 145.533 115.838 144.708 116.513 144.025C117.188 143.342 118.017 143 119 143C119.967 143 120.792 143.342 121.475 144.025C122.158 144.708 122.5 145.533 122.5 146.5C122.5 147.483 122.158 148.312 121.475 148.988C120.792 149.663 119.967 150 119 150ZM115 154.375C115 154.875 115.267 155.458 115.8 156.125C116.333 156.792 117.4 157.85 119 159.3C120.567 157.883 121.625 156.842 122.175 156.175C122.725 155.508 123 154.908 123 154.375C123 153.992 122.875 153.667 122.625 153.4C122.375 153.133 122.067 153 121.7 153C121.467 153 121.246 153.05 121.038 153.15C120.829 153.25 120.658 153.392 120.525 153.575L119.325 155H118.65L117.45 153.575C117.317 153.392 117.146 153.25 116.938 153.15C116.729 153.05 116.517 153 116.3 153C115.917 153 115.604 153.133 115.363 153.4C115.121 153.667 115 153.992 115 154.375ZM113 154.375C113 153.492 113.3 152.708 113.9 152.025C114.5 151.342 115.3 151 116.3 151C116.817 151 117.312 151.117 117.788 151.35C118.263 151.583 118.667 151.9 119 152.3C119.333 151.9 119.733 151.583 120.2 151.35C120.667 151.117 121.167 151 121.7 151C122.7 151 123.5 151.346 124.1 152.038C124.7 152.729 125 153.508 125 154.375C125 155.258 124.679 156.129 124.038 156.988C123.396 157.846 122.083 159.183 120.1 161L119 162L117.9 161C115.883 159.167 114.562 157.825 113.938 156.975C113.312 156.125 113 155.258 113 154.375ZM112 149C112.283 149 112.521 148.904 112.713 148.713C112.904 148.521 113 148.283 113 148C113 147.717 112.904 147.479 112.713 147.287C112.521 147.096 112.283 147 112 147C111.717 147 111.479 147.096 111.288 147.287C111.096 147.479 111 147.717 111 148C111 148.283 111.096 148.521 111.288 148.713C111.479 148.904 111.717 149 112 149ZM119.075 163V161H127V154H124.05V152H127C127.55 152 128.021 152.196 128.413 152.588C128.804 152.979 129 153.45 129 154V163H119.075ZM111 161H119.075V163H109V154C109 153.45 109.192 152.979 109.575 152.588C109.958 152.196 110.433 152 111 152H113.95V154H111V161ZM112 151C111.15 151 110.438 150.713 109.863 150.138C109.288 149.563 109 148.85 109 148C109 147.167 109.288 146.458 109.863 145.875C110.438 145.292 111.15 145 112 145C112.833 145 113.542 145.292 114.125 145.875C114.708 146.458 115 147.167 115 148C115 148.85 114.708 149.563 114.125 150.138C113.542 150.713 112.833 151 112 151Z" fill="#FF0000"/>
</g>
<mask id="mask32_1710_45303" style="mask-type:alpha" maskUnits="userSpaceOnUse" x="141" y="141" width="24" height="24">
<rect x="141" y="141" width="24" height="24" fill="#D9D9D9"/>
</mask>
<g mask="url(#mask32_1710_45303)">
<path d="M147 161C146.45 161 145.979 160.804 145.588 160.413C145.196 160.021 145 159.55 145 159C145 158.45 145.196 157.979 145.588 157.588C145.979 157.196 146.45 157 147 157C147.55 157 148.021 157.196 148.413 157.588C148.804 157.979 149 158.45 149 159C149 159.55 148.804 160.021 148.413 160.413C148.021 160.804 147.55 161 147 161ZM153 161C152.45 161 151.979 160.804 151.588 160.413C151.196 160.021 151 159.55 151 159C151 158.45 151.196 157.979 151.588 157.588C151.979 157.196 152.45 157 153 157C153.55 157 154.021 157.196 154.413 157.588C154.804 157.979 155 158.45 155 159C155 159.55 154.804 160.021 154.413 160.413C154.021 160.804 153.55 161 153 161ZM159 161C158.45 161 157.979 160.804 157.588 160.413C157.196 160.021 157 159.55 157 159C157 158.45 157.196 157.979 157.588 157.588C157.979 157.196 158.45 157 159 157C159.55 157 160.021 157.196 160.413 157.588C160.804 157.979 161 158.45 161 159C161 159.55 160.804 160.021 160.413 160.413C160.021 160.804 159.55 161 159 161ZM147 155C146.45 155 145.979 154.804 145.588 154.413C145.196 154.021 145 153.55 145 153C145 152.45 145.196 151.979 145.588 151.588C145.979 151.196 146.45 151 147 151C147.55 151 148.021 151.196 148.413 151.588C148.804 151.979 149 152.45 149 153C149 153.55 148.804 154.021 148.413 154.413C148.021 154.804 147.55 155 147 155ZM153 155C152.45 155 151.979 154.804 151.588 154.413C151.196 154.021 151 153.55 151 153C151 152.45 151.196 151.979 151.588 151.588C151.979 151.196 152.45 151 153 151C153.55 151 154.021 151.196 154.413 151.588C154.804 151.979 155 152.45 155 153C155 153.55 154.804 154.021 154.413 154.413C154.021 154.804 153.55 155 153 155ZM159 155C158.45 155 157.979 154.804 157.588 154.413C157.196 154.021 157 153.55 157 153C157 152.45 157.196 151.979 157.588 151.588C157.979 151.196 158.45 151 159 151C159.55 151 160.021 151.196 160.413 151.588C160.804 151.979 161 152.45 161 153C161 153.55 160.804 154.021 160.413 154.413C160.021 154.804 159.55 155 159 155ZM147 149C146.45 149 145.979 148.804 145.588 148.413C145.196 148.021 145 147.55 145 147C145 146.45 145.196 145.979 145.588 145.588C145.979 145.196 146.45 145 147 145C147.55 145 148.021 145.196 148.413 145.588C148.804 145.979 149 146.45 149 147C149 147.55 148.804 148.021 148.413 148.413C148.021 148.804 147.55 149 147 149ZM153 149C152.45 149 151.979 148.804 151.588 148.413C151.196 148.021 151 147.55 151 147C151 146.45 151.196 145.979 151.588 145.588C151.979 145.196 152.45 145 153 145C153.55 145 154.021 145.196 154.413 145.588C154.804 145.979 155 146.45 155 147C155 147.55 154.804 148.021 154.413 148.413C154.021 148.804 153.55 149 153 149ZM159 149C158.45 149 157.979 148.804 157.588 148.413C157.196 148.021 157 147.55 157 147C157 146.45 157.196 145.979 157.588 145.588C157.979 145.196 158.45 145 159 145C159.55 145 160.021 145.196 160.413 145.588C160.804 145.979 161 146.45 161 147C161 147.55 160.804 148.021 160.413 148.413C160.021 148.804 159.55 149 159 149Z" fill="#FF0000"/>
</g>
<mask id="mask33_1710_45303" style="mask-type:alpha" maskUnits="userSpaceOnUse" x="175" y="141" width="24" height="24">
<rect x="175" y="141" width="24" height="24" fill="#D9D9D9"/>
</mask>
<g mask="url(#mask33_1710_45303)">
<path d="M182.356 162.5V160.481L185.279 158.429V154.464L177.5 157.586V155.106L185.279 149.641V145.221C185.279 144.748 185.447 144.343 185.785 144.006C186.122 143.669 186.527 143.5 187 143.5C187.473 143.5 187.878 143.669 188.215 144.006C188.553 144.343 188.721 144.748 188.721 145.221V149.641L196.5 155.106V157.586L188.721 154.464V158.429L191.635 160.481V162.5L187 161.096L182.356 162.5Z" fill="#FF0000"/>
</g>
<mask id="mask34_1710_45303" style="mask-type:alpha" maskUnits="userSpaceOnUse" x="209" y="141" width="24" height="24">
<rect x="209" y="141" width="24" height="24" fill="#D9D9D9"/>
</mask>
<g mask="url(#mask34_1710_45303)">
<path d="M212 162V148H216V144H226V152H230V162H222V158H220V162H212ZM214 160H216V158H214V160ZM214 156H216V154H214V156ZM214 152H216V150H214V152ZM218 156H220V154H218V156ZM218 152H220V150H218V152ZM218 148H220V146H218V148ZM222 156H224V154H222V156ZM222 152H224V150H222V152ZM222 148H224V146H222V148ZM226 160H228V158H226V160ZM226 156H228V154H226V156Z" fill="#FF0000"/>
</g>
<mask id="mask35_1710_45303" style="mask-type:alpha" maskUnits="userSpaceOnUse" x="5" y="175" width="24" height="24">
<rect x="5" y="175" width="24" height="24" fill="#D9D9D9"/>
</mask>
<g mask="url(#mask35_1710_45303)">
<path d="M11.5 195C9.96667 195 8.66667 194.467 7.6 193.4C6.53333 192.333 6 191.033 6 189.5C6 188.2 6.40417 187.054 7.2125 186.062C8.02083 185.071 9.03333 184.433 10.25 184.15C10.6667 182.65 11.4917 181.417 12.725 180.45C13.9583 179.483 15.3833 179 17 179C18.9833 179 20.6458 179.688 21.9875 181.062C23.3292 182.438 24 184.083 24 186C25.25 186.133 26.2292 186.65 26.9375 187.55C27.6458 188.45 28 189.425 28 190.475C28 191.725 27.5625 192.792 26.6875 193.675C25.8125 194.558 24.75 195 23.5 195H11.5ZM11.5 193H23.5C24.2 193 24.7917 192.758 25.275 192.275C25.7583 191.792 26 191.2 26 190.5C26 189.8 25.7583 189.208 25.275 188.725C24.7917 188.242 24.2 188 23.5 188H22V186C22 184.617 21.5125 183.438 20.5375 182.463C19.5625 181.488 18.3833 181 17 181C15.95 181 15.0167 181.287 14.2 181.862C13.3833 182.438 12.7833 183.175 12.4 184.075C13.7 184.292 14.7917 184.904 15.675 185.912C16.5583 186.921 17 188.117 17 189.5H15C15 188.533 14.6583 187.708 13.975 187.025C13.2917 186.342 12.4667 186 11.5 186C10.5333 186 9.70833 186.342 9.025 187.025C8.34167 187.708 8 188.533 8 189.5C8 190.467 8.34167 191.292 9.025 191.975C9.70833 192.658 10.5333 193 11.5 193Z" fill="#FF0000"/>
</g>
<mask id="mask36_1710_45303" style="mask-type:alpha" maskUnits="userSpaceOnUse" x="39" y="175" width="24" height="24">
<rect x="39" y="175" width="24" height="24" fill="#D9D9D9"/>
</mask>
<g mask="url(#mask36_1710_45303)">
<path d="M42 196V182H46V178H56V186H60V196H52V192H50V196H42ZM44 194H46V192H44V194ZM44 190H46V188H44V190ZM44 186H46V184H44V186ZM48 190H50V188H48V190ZM48 186H50V184H48V186ZM48 182H50V180H48V182ZM52 190H54V188H52V190ZM52 186H54V184H52V186ZM52 182H54V180H52V182ZM56 194H58V192H56V194ZM56 190H58V188H56V190Z" fill="#FF0000"/>
</g>
<mask id="mask37_1710_45303" style="mask-type:alpha" maskUnits="userSpaceOnUse" x="73" y="175" width="24" height="24">
<rect x="73" y="175" width="24" height="24" fill="#D9D9D9"/>
</mask>
<g mask="url(#mask37_1710_45303)">
<path d="M83.55 193.2L88.725 187H84.725L85.45 181.325L80.825 188H84.3L83.55 193.2ZM81 197L82 190H77L86 177H88L87 185H93L83 197H81Z" fill="#FF0000"/>
</g>
<mask id="mask38_1710_45303" style="mask-type:alpha" maskUnits="userSpaceOnUse" x="107" y="175" width="24" height="24">
<rect x="107" y="175" width="24" height="24" fill="#D9D9D9"/>
</mask>
<g mask="url(#mask38_1710_45303)">
<path d="M113 195C112.45 195 111.979 194.804 111.588 194.413C111.196 194.021 111 193.55 111 193C111 192.45 111.196 191.979 111.588 191.588C111.979 191.196 112.45 191 113 191C113.55 191 114.021 191.196 114.413 191.588C114.804 191.979 115 192.45 115 193C115 193.55 114.804 194.021 114.413 194.413C114.021 194.804 113.55 195 113 195ZM119 195C118.45 195 117.979 194.804 117.588 194.413C117.196 194.021 117 193.55 117 193C117 192.45 117.196 191.979 117.588 191.588C117.979 191.196 118.45 191 119 191C119.55 191 120.021 191.196 120.413 191.588C120.804 191.979 121 192.45 121 193C121 193.55 120.804 194.021 120.413 194.413C120.021 194.804 119.55 195 119 195ZM125 195C124.45 195 123.979 194.804 123.588 194.413C123.196 194.021 123 193.55 123 193C123 192.45 123.196 191.979 123.588 191.588C123.979 191.196 124.45 191 125 191C125.55 191 126.021 191.196 126.413 191.588C126.804 191.979 127 192.45 127 193C127 193.55 126.804 194.021 126.413 194.413C126.021 194.804 125.55 195 125 195ZM113 189C112.45 189 111.979 188.804 111.588 188.413C111.196 188.021 111 187.55 111 187C111 186.45 111.196 185.979 111.588 185.588C111.979 185.196 112.45 185 113 185C113.55 185 114.021 185.196 114.413 185.588C114.804 185.979 115 186.45 115 187C115 187.55 114.804 188.021 114.413 188.413C114.021 188.804 113.55 189 113 189ZM119 189C118.45 189 117.979 188.804 117.588 188.413C117.196 188.021 117 187.55 117 187C117 186.45 117.196 185.979 117.588 185.588C117.979 185.196 118.45 185 119 185C119.55 185 120.021 185.196 120.413 185.588C120.804 185.979 121 186.45 121 187C121 187.55 120.804 188.021 120.413 188.413C120.021 188.804 119.55 189 119 189ZM125 189C124.45 189 123.979 188.804 123.588 188.413C123.196 188.021 123 187.55 123 187C123 186.45 123.196 185.979 123.588 185.588C123.979 185.196 124.45 185 125 185C125.55 185 126.021 185.196 126.413 185.588C126.804 185.979 127 186.45 127 187C127 187.55 126.804 188.021 126.413 188.413C126.021 188.804 125.55 189 125 189ZM113 183C112.45 183 111.979 182.804 111.588 182.413C111.196 182.021 111 181.55 111 181C111 180.45 111.196 179.979 111.588 179.588C111.979 179.196 112.45 179 113 179C113.55 179 114.021 179.196 114.413 179.588C114.804 179.979 115 180.45 115 181C115 181.55 114.804 182.021 114.413 182.413C114.021 182.804 113.55 183 113 183ZM119 183C118.45 183 117.979 182.804 117.588 182.413C117.196 182.021 117 181.55 117 181C117 180.45 117.196 179.979 117.588 179.588C117.979 179.196 118.45 179 119 179C119.55 179 120.021 179.196 120.413 179.588C120.804 179.979 121 180.45 121 181C121 181.55 120.804 182.021 120.413 182.413C120.021 182.804 119.55 183 119 183ZM125 183C124.45 183 123.979 182.804 123.588 182.413C123.196 182.021 123 181.55 123 181C123 180.45 123.196 179.979 123.588 179.588C123.979 179.196 124.45 179 125 179C125.55 179 126.021 179.196 126.413 179.588C126.804 179.979 127 180.45 127 181C127 181.55 126.804 182.021 126.413 182.413C126.021 182.804 125.55 183 125 183Z" fill="#FF0000"/>
</g>
<mask id="mask39_1710_45303" style="mask-type:alpha" maskUnits="userSpaceOnUse" x="141" y="175" width="24" height="24">
<rect x="141" y="175" width="24" height="24" fill="#D9D9D9"/>
</mask>
<g mask="url(#mask39_1710_45303)">
<path d="M148.356 196.5V194.481L151.279 192.429V188.464L143.5 191.586V189.106L151.279 183.641V179.221C151.279 178.748 151.447 178.343 151.785 178.006C152.122 177.669 152.527 177.5 153 177.5C153.473 177.5 153.878 177.669 154.215 178.006C154.553 178.343 154.721 178.748 154.721 179.221V183.641L162.5 189.106V191.586L154.721 188.464V192.429L157.635 194.481V196.5L153 195.096L148.356 196.5Z" fill="#FF0000"/>
</g>
<mask id="mask40_1710_45303" style="mask-type:alpha" maskUnits="userSpaceOnUse" x="175" y="175" width="24" height="24">
<rect x="175" y="175" width="24" height="24" fill="#D9D9D9"/>
</mask>
<g mask="url(#mask40_1710_45303)">
<path d="M186.15 197C185.9 197 185.65 196.95 185.4 196.85C185.15 196.75 184.925 196.6 184.725 196.4L177.575 189.25C177.375 189.05 177.229 188.829 177.138 188.588C177.046 188.346 177 188.1 177 187.85C177 187.6 177.046 187.35 177.138 187.1C177.229 186.85 177.375 186.625 177.575 186.425L186.375 177.6C186.558 177.417 186.775 177.271 187.025 177.163C187.275 177.054 187.533 177 187.8 177H194.975C195.525 177 195.996 177.196 196.388 177.588C196.779 177.979 196.975 178.45 196.975 179V186.175C196.975 186.442 196.925 186.696 196.825 186.938C196.725 187.179 196.583 187.392 196.4 187.575L187.575 196.4C187.375 196.6 187.15 196.75 186.9 196.85C186.65 196.95 186.4 197 186.15 197ZM186.15 195L194.975 186.15V179H187.825L179 187.85L186.15 195ZM192.475 183C192.892 183 193.246 182.854 193.538 182.562C193.829 182.271 193.975 181.917 193.975 181.5C193.975 181.083 193.829 180.729 193.538 180.438C193.246 180.146 192.892 180 192.475 180C192.058 180 191.704 180.146 191.413 180.438C191.121 180.729 190.975 181.083 190.975 181.5C190.975 181.917 191.121 182.271 191.413 182.562C191.704 182.854 192.058 183 192.475 183Z" fill="#FF0000"/>
</g>
<mask id="mask41_1710_45303" style="mask-type:alpha" maskUnits="userSpaceOnUse" x="209" y="175" width="24" height="24">
<rect x="209" y="175" width="24" height="24" fill="#D9D9D9"/>
</mask>
<g mask="url(#mask41_1710_45303)">
<path d="M228 183C228.283 183 228.521 182.904 228.712 182.713C228.904 182.521 229 182.283 229 182C229 181.717 228.904 181.479 228.712 181.287C228.521 181.096 228.283 181 228 181C227.717 181 227.479 181.096 227.288 181.287C227.096 181.479 227 181.717 227 182C227 182.283 227.096 182.521 227.288 182.713C227.479 182.904 227.717 183 228 183ZM228 185C227.15 185 226.438 184.713 225.863 184.138C225.288 183.563 225 182.85 225 182C225 181.167 225.288 180.458 225.863 179.875C226.438 179.292 227.15 179 228 179C228.833 179 229.542 179.292 230.125 179.875C230.708 180.458 231 181.167 231 182C231 182.85 230.708 183.563 230.125 184.138C229.542 184.713 228.833 185 228 185ZM221 182C221.417 182 221.771 181.858 222.062 181.575C222.354 181.292 222.5 180.933 222.5 180.5C222.5 180.083 222.354 179.729 222.062 179.438C221.771 179.146 221.417 179 221 179C220.567 179 220.208 179.146 219.925 179.438C219.642 179.729 219.5 180.083 219.5 180.5C219.5 180.933 219.642 181.292 219.925 181.575C220.208 181.858 220.567 182 221 182ZM221 184C220.017 184 219.188 183.663 218.513 182.988C217.838 182.312 217.5 181.483 217.5 180.5C217.5 179.533 217.838 178.708 218.513 178.025C219.188 177.342 220.017 177 221 177C221.967 177 222.792 177.342 223.475 178.025C224.158 178.708 224.5 179.533 224.5 180.5C224.5 181.483 224.158 182.312 223.475 182.988C222.792 183.663 221.967 184 221 184ZM217 188.375C217 188.875 217.267 189.458 217.8 190.125C218.333 190.792 219.4 191.85 221 193.3C222.567 191.883 223.625 190.842 224.175 190.175C224.725 189.508 225 188.908 225 188.375C225 187.992 224.875 187.667 224.625 187.4C224.375 187.133 224.067 187 223.7 187C223.467 187 223.246 187.05 223.038 187.15C222.829 187.25 222.658 187.392 222.525 187.575L221.325 189H220.65L219.45 187.575C219.317 187.392 219.146 187.25 218.938 187.15C218.729 187.05 218.517 187 218.3 187C217.917 187 217.604 187.133 217.363 187.4C217.121 187.667 217 187.992 217 188.375ZM215 188.375C215 187.492 215.3 186.708 215.9 186.025C216.5 185.342 217.3 185 218.3 185C218.817 185 219.312 185.117 219.788 185.35C220.263 185.583 220.667 185.9 221 186.3C221.333 185.9 221.733 185.583 222.2 185.35C222.667 185.117 223.167 185 223.7 185C224.7 185 225.5 185.346 226.1 186.038C226.7 186.729 227 187.508 227 188.375C227 189.258 226.679 190.129 226.038 190.988C225.396 191.846 224.083 193.183 222.1 195L221 196L219.9 195C217.883 193.167 216.562 191.825 215.938 190.975C215.312 190.125 215 189.258 215 188.375ZM214 183C214.283 183 214.521 182.904 214.713 182.713C214.904 182.521 215 182.283 215 182C215 181.717 214.904 181.479 214.713 181.287C214.521 181.096 214.283 181 214 181C213.717 181 213.479 181.096 213.288 181.287C213.096 181.479 213 181.717 213 182C213 182.283 213.096 182.521 213.288 182.713C213.479 182.904 213.717 183 214 183ZM221.075 197V195H229V188H226.05V186H229C229.55 186 230.021 186.196 230.413 186.588C230.804 186.979 231 187.45 231 188V197H221.075ZM213 195H221.075V197H211V188C211 187.45 211.192 186.979 211.575 186.588C211.958 186.196 212.433 186 213 186H215.95V188H213V195ZM214 185C213.15 185 212.438 184.713 211.863 184.138C211.288 183.563 211 182.85 211 182C211 181.167 211.288 180.458 211.863 179.875C212.438 179.292 213.15 179 214 179C214.833 179 215.542 179.292 216.125 179.875C216.708 180.458 217 181.167 217 182C217 182.85 216.708 183.563 216.125 184.138C215.542 184.713 214.833 185 214 185Z" fill="#FF0000"/>
</g>
<mask id="mask42_1710_45303" style="mask-type:alpha" maskUnits="userSpaceOnUse" x="5" y="209" width="24" height="24">
<rect x="5" y="209" width="24" height="24" fill="#D9D9D9"/>
</mask>
<g mask="url(#mask42_1710_45303)">
<path d="M12.3558 230.5V228.481L15.2787 226.429V222.464L7.5 225.586V223.106L15.2787 217.641V213.221C15.2787 212.748 15.4474 212.343 15.7848 212.006C16.1219 211.669 16.527 211.5 17 211.5C17.473 211.5 17.8781 211.669 18.2153 212.006C18.5526 212.343 18.7212 212.748 18.7212 213.221V217.641L26.5 223.106V225.586L18.7212 222.464V226.429L21.6345 228.481V230.5L17 229.096L12.3558 230.5Z" fill="#FF0000"/>
</g>
<mask id="mask43_1710_45303" style="mask-type:alpha" maskUnits="userSpaceOnUse" x="39" y="209" width="24" height="24">
<rect x="39" y="209" width="24" height="24" fill="#D9D9D9"/>
</mask>
<g mask="url(#mask43_1710_45303)">
<path d="M45 229C44.45 229 43.9792 228.804 43.5875 228.413C43.1958 228.021 43 227.55 43 227C43 226.45 43.1958 225.979 43.5875 225.588C43.9792 225.196 44.45 225 45 225C45.55 225 46.0208 225.196 46.4125 225.588C46.8042 225.979 47 226.45 47 227C47 227.55 46.8042 228.021 46.4125 228.413C46.0208 228.804 45.55 229 45 229ZM51 229C50.45 229 49.9792 228.804 49.5875 228.413C49.1958 228.021 49 227.55 49 227C49 226.45 49.1958 225.979 49.5875 225.588C49.9792 225.196 50.45 225 51 225C51.55 225 52.0208 225.196 52.4125 225.588C52.8042 225.979 53 226.45 53 227C53 227.55 52.8042 228.021 52.4125 228.413C52.0208 228.804 51.55 229 51 229ZM57 229C56.45 229 55.9792 228.804 55.5875 228.413C55.1958 228.021 55 227.55 55 227C55 226.45 55.1958 225.979 55.5875 225.588C55.9792 225.196 56.45 225 57 225C57.55 225 58.0208 225.196 58.4125 225.588C58.8042 225.979 59 226.45 59 227C59 227.55 58.8042 228.021 58.4125 228.413C58.0208 228.804 57.55 229 57 229ZM45 223C44.45 223 43.9792 222.804 43.5875 222.413C43.1958 222.021 43 221.55 43 221C43 220.45 43.1958 219.979 43.5875 219.588C43.9792 219.196 44.45 219 45 219C45.55 219 46.0208 219.196 46.4125 219.588C46.8042 219.979 47 220.45 47 221C47 221.55 46.8042 222.021 46.4125 222.413C46.0208 222.804 45.55 223 45 223ZM51 223C50.45 223 49.9792 222.804 49.5875 222.413C49.1958 222.021 49 221.55 49 221C49 220.45 49.1958 219.979 49.5875 219.588C49.9792 219.196 50.45 219 51 219C51.55 219 52.0208 219.196 52.4125 219.588C52.8042 219.979 53 220.45 53 221C53 221.55 52.8042 222.021 52.4125 222.413C52.0208 222.804 51.55 223 51 223ZM57 223C56.45 223 55.9792 222.804 55.5875 222.413C55.1958 222.021 55 221.55 55 221C55 220.45 55.1958 219.979 55.5875 219.588C55.9792 219.196 56.45 219 57 219C57.55 219 58.0208 219.196 58.4125 219.588C58.8042 219.979 59 220.45 59 221C59 221.55 58.8042 222.021 58.4125 222.413C58.0208 222.804 57.55 223 57 223ZM45 217C44.45 217 43.9792 216.804 43.5875 216.413C43.1958 216.021 43 215.55 43 215C43 214.45 43.1958 213.979 43.5875 213.588C43.9792 213.196 44.45 213 45 213C45.55 213 46.0208 213.196 46.4125 213.588C46.8042 213.979 47 214.45 47 215C47 215.55 46.8042 216.021 46.4125 216.413C46.0208 216.804 45.55 217 45 217ZM51 217C50.45 217 49.9792 216.804 49.5875 216.413C49.1958 216.021 49 215.55 49 215C49 214.45 49.1958 213.979 49.5875 213.588C49.9792 213.196 50.45 213 51 213C51.55 213 52.0208 213.196 52.4125 213.588C52.8042 213.979 53 214.45 53 215C53 215.55 52.8042 216.021 52.4125 216.413C52.0208 216.804 51.55 217 51 217ZM57 217C56.45 217 55.9792 216.804 55.5875 216.413C55.1958 216.021 55 215.55 55 215C55 214.45 55.1958 213.979 55.5875 213.588C55.9792 213.196 56.45 213 57 213C57.55 213 58.0208 213.196 58.4125 213.588C58.8042 213.979 59 214.45 59 215C59 215.55 58.8042 216.021 58.4125 216.413C58.0208 216.804 57.55 217 57 217Z" fill="#FF0000"/>
</g>
<mask id="mask44_1710_45303" style="mask-type:alpha" maskUnits="userSpaceOnUse" x="73" y="209" width="24" height="24">
<rect x="73" y="209" width="24" height="24" fill="#D9D9D9"/>
</mask>
<g mask="url(#mask44_1710_45303)">
<path d="M84.15 231C83.9 231 83.65 230.95 83.4 230.85C83.15 230.75 82.925 230.6 82.725 230.4L75.575 223.25C75.375 223.05 75.2292 222.829 75.1375 222.588C75.0458 222.346 75 222.1 75 221.85C75 221.6 75.0458 221.35 75.1375 221.1C75.2292 220.85 75.375 220.625 75.575 220.425L84.375 211.6C84.5583 211.417 84.775 211.271 85.025 211.163C85.275 211.054 85.5333 211 85.8 211H92.975C93.525 211 93.9958 211.196 94.3875 211.588C94.7792 211.979 94.975 212.45 94.975 213V220.175C94.975 220.442 94.925 220.696 94.825 220.938C94.725 221.179 94.5833 221.392 94.4 221.575L85.575 230.4C85.375 230.6 85.15 230.75 84.9 230.85C84.65 230.95 84.4 231 84.15 231ZM84.15 229L92.975 220.15V213H85.825L77 221.85L84.15 229ZM90.475 217C90.8917 217 91.2458 216.854 91.5375 216.562C91.8292 216.271 91.975 215.917 91.975 215.5C91.975 215.083 91.8292 214.729 91.5375 214.438C91.2458 214.146 90.8917 214 90.475 214C90.0583 214 89.7042 214.146 89.4125 214.438C89.1208 214.729 88.975 215.083 88.975 215.5C88.975 215.917 89.1208 216.271 89.4125 216.562C89.7042 216.854 90.0583 217 90.475 217Z" fill="#FF0000"/>
</g>
<mask id="mask45_1710_45303" style="mask-type:alpha" maskUnits="userSpaceOnUse" x="107" y="209" width="24" height="24">
<rect x="107" y="209" width="24" height="24" fill="#D9D9D9"/>
</mask>
<g mask="url(#mask45_1710_45303)">
<path d="M110 230V216H114V212H124V220H128V230H120V226H118V230H110ZM112 228H114V226H112V228ZM112 224H114V222H112V224ZM112 220H114V218H112V220ZM116 224H118V222H116V224ZM116 220H118V218H116V220ZM116 216H118V214H116V216ZM120 224H122V222H120V224ZM120 220H122V218H120V220ZM120 216H122V214H120V216ZM124 228H126V226H124V228ZM124 224H126V222H124V224Z" fill="#FF0000"/>
</g>
<mask id="mask46_1710_45303" style="mask-type:alpha" maskUnits="userSpaceOnUse" x="141" y="209" width="24" height="24">
<rect x="141" y="209" width="24" height="24" fill="#D9D9D9"/>
</mask>
<g mask="url(#mask46_1710_45303)">
<path d="M160 217C160.283 217 160.521 216.904 160.712 216.713C160.904 216.521 161 216.283 161 216C161 215.717 160.904 215.479 160.712 215.287C160.521 215.096 160.283 215 160 215C159.717 215 159.479 215.096 159.288 215.287C159.096 215.479 159 215.717 159 216C159 216.283 159.096 216.521 159.288 216.713C159.479 216.904 159.717 217 160 217ZM160 219C159.15 219 158.438 218.713 157.863 218.138C157.288 217.563 157 216.85 157 216C157 215.167 157.288 214.458 157.863 213.875C158.438 213.292 159.15 213 160 213C160.833 213 161.542 213.292 162.125 213.875C162.708 214.458 163 215.167 163 216C163 216.85 162.708 217.563 162.125 218.138C161.542 218.713 160.833 219 160 219ZM153 216C153.417 216 153.771 215.858 154.062 215.575C154.354 215.292 154.5 214.933 154.5 214.5C154.5 214.083 154.354 213.729 154.062 213.438C153.771 213.146 153.417 213 153 213C152.567 213 152.208 213.146 151.925 213.438C151.642 213.729 151.5 214.083 151.5 214.5C151.5 214.933 151.642 215.292 151.925 215.575C152.208 215.858 152.567 216 153 216ZM153 218C152.017 218 151.188 217.663 150.513 216.988C149.838 216.312 149.5 215.483 149.5 214.5C149.5 213.533 149.838 212.708 150.513 212.025C151.188 211.342 152.017 211 153 211C153.967 211 154.792 211.342 155.475 212.025C156.158 212.708 156.5 213.533 156.5 214.5C156.5 215.483 156.158 216.312 155.475 216.988C154.792 217.663 153.967 218 153 218ZM149 222.375C149 222.875 149.267 223.458 149.8 224.125C150.333 224.792 151.4 225.85 153 227.3C154.567 225.883 155.625 224.842 156.175 224.175C156.725 223.508 157 222.908 157 222.375C157 221.992 156.875 221.667 156.625 221.4C156.375 221.133 156.067 221 155.7 221C155.467 221 155.246 221.05 155.038 221.15C154.829 221.25 154.658 221.392 154.525 221.575L153.325 223H152.65L151.45 221.575C151.317 221.392 151.146 221.25 150.938 221.15C150.729 221.05 150.517 221 150.3 221C149.917 221 149.604 221.133 149.363 221.4C149.121 221.667 149 221.992 149 222.375ZM147 222.375C147 221.492 147.3 220.708 147.9 220.025C148.5 219.342 149.3 219 150.3 219C150.817 219 151.312 219.117 151.788 219.35C152.263 219.583 152.667 219.9 153 220.3C153.333 219.9 153.733 219.583 154.2 219.35C154.667 219.117 155.167 219 155.7 219C156.7 219 157.5 219.346 158.1 220.038C158.7 220.729 159 221.508 159 222.375C159 223.258 158.679 224.129 158.038 224.988C157.396 225.846 156.083 227.183 154.1 229L153 230L151.9 229C149.883 227.167 148.562 225.825 147.938 224.975C147.312 224.125 147 223.258 147 222.375ZM146 217C146.283 217 146.521 216.904 146.713 216.713C146.904 216.521 147 216.283 147 216C147 215.717 146.904 215.479 146.713 215.287C146.521 215.096 146.283 215 146 215C145.717 215 145.479 215.096 145.288 215.287C145.096 215.479 145 215.717 145 216C145 216.283 145.096 216.521 145.288 216.713C145.479 216.904 145.717 217 146 217ZM153.075 231V229H161V222H158.05V220H161C161.55 220 162.021 220.196 162.413 220.588C162.804 220.979 163 221.45 163 222V231H153.075ZM145 229H153.075V231H143V222C143 221.45 143.192 220.979 143.575 220.588C143.958 220.196 144.433 220 145 220H147.95V222H145V229ZM146 219C145.15 219 144.438 218.713 143.863 218.138C143.288 217.563 143 216.85 143 216C143 215.167 143.288 214.458 143.863 213.875C144.438 213.292 145.15 213 146 213C146.833 213 147.542 213.292 148.125 213.875C148.708 214.458 149 215.167 149 216C149 216.85 148.708 217.563 148.125 218.138C147.542 218.713 146.833 219 146 219Z" fill="#FF0000"/>
</g>
<mask id="mask47_1710_45303" style="mask-type:alpha" maskUnits="userSpaceOnUse" x="175" y="209" width="24" height="24">
<rect x="175" y="209" width="24" height="24" fill="#D9D9D9"/>
</mask>
<g mask="url(#mask47_1710_45303)">
<path d="M181.5 229C179.967 229 178.667 228.467 177.6 227.4C176.533 226.333 176 225.033 176 223.5C176 222.2 176.404 221.054 177.212 220.062C178.021 219.071 179.033 218.433 180.25 218.15C180.667 216.65 181.492 215.417 182.725 214.45C183.958 213.483 185.383 213 187 213C188.983 213 190.646 213.688 191.988 215.062C193.329 216.438 194 218.083 194 220C195.25 220.133 196.229 220.65 196.938 221.55C197.646 222.45 198 223.425 198 224.475C198 225.725 197.562 226.792 196.688 227.675C195.812 228.558 194.75 229 193.5 229H181.5ZM181.5 227H193.5C194.2 227 194.792 226.758 195.275 226.275C195.758 225.792 196 225.2 196 224.5C196 223.8 195.758 223.208 195.275 222.725C194.792 222.242 194.2 222 193.5 222H192V220C192 218.617 191.513 217.438 190.538 216.463C189.562 215.488 188.383 215 187 215C185.95 215 185.017 215.287 184.2 215.862C183.383 216.438 182.783 217.175 182.4 218.075C183.7 218.292 184.792 218.904 185.675 219.912C186.558 220.921 187 222.117 187 223.5H185C185 222.533 184.658 221.708 183.975 221.025C183.292 220.342 182.467 220 181.5 220C180.533 220 179.708 220.342 179.025 221.025C178.342 221.708 178 222.533 178 223.5C178 224.467 178.342 225.292 179.025 225.975C179.708 226.658 180.533 227 181.5 227Z" fill="#FF0000"/>
</g>
<mask id="mask48_1710_45303" style="mask-type:alpha" maskUnits="userSpaceOnUse" x="209" y="209" width="24" height="24">
<rect x="209" y="209" width="24" height="24" fill="#D9D9D9"/>
</mask>
<g mask="url(#mask48_1710_45303)">
<path d="M219.55 227.2L224.725 221H220.725L221.45 215.325L216.825 222H220.3L219.55 227.2ZM217 231L218 224H213L222 211H224L223 219H229L219 231H217Z" fill="#FF0000"/>
</g>
</svg>
