<svg xmlns="http://www.w3.org/2000/svg" xmlns:xlink="http://www.w3.org/1999/xlink" width="238" height="238" fill="none"><path fill="#fff" d="M0 0h238v238H0z"/><defs><path id="a" fill="red" d="M19 8q.4 0 .7-.3L20 7l-.3-.7L19 6l-.7.3-.3.7q0 .4.3.7t.7.3m0 2q-1.3 0-2.1-.9T16 7t.9-2.1T19 4t2.1.9T22 7t-.9 2.1-2.1.9m-7-3q.6 0 1-.4t.5-1.1-.4-1L12 4q-.6 0-1 .4l-.5 1.1q0 .7.4 1T12 7m0 2q-1.5 0-2.5-1t-1-2.5 1-2.5T12 2t2.5 1a3 3 0 0 1 1 2.5q0 1.5-1 2.5A3 3 0 0 1 12 9m-4 4.4q0 .7.8 1.7t3.2 3.2q2.4-2.1 3.2-3.1t.8-1.8q0-.6-.4-1t-.9-.4l-.7.2-.5.4-1.2 1.4h-.7l-1.2-1.4-.5-.5-.6-.1q-.6 0-1 .4a1 1 0 0 0-.3 1m-2 0q0-1.4.9-2.4t2.4-1q.8 0 1.5.4t1.2.9q.5-.6 1.2-1t1.5-.3q1.5 0 2.4 1t.9 2.4-1 2.6-3.9 4L12 21l-1.1-1q-3-2.7-4-4T6 13.4M5 8q.4 0 .7-.3L6 7l-.3-.7L5 6l-.7.3L4 7q0 .4.3.7T5 8m7 14v-2h8v-7h-3v-2h3q.8 0 1.4.6T22 13v9zm-8-2h8v2H2v-9q0-.8.6-1.4A2 2 0 0 1 4 11h3v2H4zm1-10q-1.3 0-2.1-.9T2 7t.9-2.1T5 4t2.1.9T8 7t-.9 2.1T5 10"/><path id="b" fill="red" d="M7.4 21.5v-2l2.9-2v-4l-7.8 3v-2.4l7.8-5.5V4.2q0-.7.5-1.2a2 2 0 0 1 1.2-.5q.7 0 1.2.5t.5 1.2v4.4l7.8 5.5v2.5l-7.8-3.1v4l3 2v2L12 20.1z"/><path id="c" fill="red" d="M3 21V7h4V3h10v8h4v10h-8v-4h-2v4zm2-2h2v-2H5zm0-4h2v-2H5zm0-4h2V9H5zm4 4h2v-2H9zm0-4h2V9H9zm0-4h2V5H9zm4 8h2v-2h-2zm0-4h2V9h-2zm0-4h2V5h-2zm4 12h2v-2h-2zm0-4h2v-2h-2z"/><path id="d" fill="red" d="m10.6 18.2 5.1-6.2h-4l.8-5.7L7.8 13h3.5zM8 22l1-7H4l9-13h2l-1 8h6L10 22z"/><path id="e" fill="red" d="m11.2 22-.8-.1q-.4-.1-.7-.5l-7.1-7.1-.5-.7a2 2 0 0 1 0-1.5l.5-.7 8.8-8.8q.2-.3.6-.4l.8-.2H20q.8 0 1.4.6T22 4v7.2a2 2 0 0 1-.6 1.4l-8.8 8.8-.7.5zm0-2 8.8-8.9V4h-7.2L4 12.9zm6.3-12q.6 0 1-.4t.5-1.1-.5-1l-1-.5q-.6 0-1 .4L16 6.5q0 .6.4 1t1 .5"/><path id="f" fill="red" d="M6 20q-.8 0-1.4-.6A2 2 0 0 1 4 18q0-.8.6-1.4A2 2 0 0 1 6 16q.8 0 1.4.6T8 18t-.6 1.4A2 2 0 0 1 6 20m6 0q-.8 0-1.4-.6A2 2 0 0 1 10 18q0-.8.6-1.4A2 2 0 0 1 12 16q.8 0 1.4.6T14 18t-.6 1.4a2 2 0 0 1-1.4.6m6 0q-.8 0-1.4-.6A2 2 0 0 1 16 18q0-.8.6-1.4A2 2 0 0 1 18 16q.8 0 1.4.6T20 18t-.6 1.4a2 2 0 0 1-1.4.6M6 14q-.8 0-1.4-.6A2 2 0 0 1 4 12q0-.8.6-1.4A2 2 0 0 1 6 10q.8 0 1.4.6T8 12t-.6 1.4A2 2 0 0 1 6 14m6 0q-.8 0-1.4-.6A2 2 0 0 1 10 12q0-.8.6-1.4A2 2 0 0 1 12 10q.8 0 1.4.6T14 12t-.6 1.4a2 2 0 0 1-1.4.6m6 0q-.8 0-1.4-.6A2 2 0 0 1 16 12q0-.8.6-1.4A2 2 0 0 1 18 10q.8 0 1.4.6T20 12t-.6 1.4a2 2 0 0 1-1.4.6M6 8q-.8 0-1.4-.6A2 2 0 0 1 4 6q0-.8.6-1.4A2 2 0 0 1 6 4q.8 0 1.4.6T8 6t-.6 1.4A2 2 0 0 1 6 8m6 0q-.8 0-1.4-.6A2 2 0 0 1 10 6q0-.8.6-1.4A2 2 0 0 1 12 4q.8 0 1.4.6T14 6t-.6 1.4A2 2 0 0 1 12 8m6 0q-.8 0-1.4-.6A2 2 0 0 1 16 6q0-.8.6-1.4A2 2 0 0 1 18 4q.8 0 1.4.6T20 6t-.6 1.4A2 2 0 0 1 18 8"/><path id="g" fill="red" d="M6.5 20q-2.3 0-3.9-1.6T1 14.5q0-2 1.2-3.4 1.2-1.5 3-2a7 7 0 0 1 2.5-3.6Q9.6 4 12 4q3 0 5 2 2 2.1 2 5 1.9.2 3 1.6 1 1.3 1 2.9 0 1.8-1.3 3.2-1.3 1.3-3.2 1.3zm0-2h12q1 0 1.8-.7a2 2 0 0 0 .7-1.8q0-1-.7-1.8t-1.8-.7H17v-2q0-2-1.5-3.5Q14.1 6 12 6q-1.6 0-2.8.9A5 5 0 0 0 7.4 9q2 .3 3.3 1.8t1.3 3.6h-2q0-1.4-1-2.5a3 3 0 0 0-2.5-1Q5.1 11 4 12a3 3 0 0 0-1 2.5Q3 16 4 17a3 3 0 0 0 2.5 1"/></defs><use href="#a" transform="translate(5 5)"/><use href="#b" transform="translate(39 5)"/><use href="#c" transform="translate(73 5)"/><use href="#d" transform="translate(107 5)"/><use href="#e" transform="translate(141 5)"/><use href="#f" transform="translate(175 5)"/><use href="#g" transform="translate(209 5)"/><use href="#g" transform="translate(5 39)"/><use href="#e" transform="translate(39 39)"/><use href="#a" transform="translate(73 39)"/><use href="#b" transform="translate(107 39)"/><use href="#c" transform="translate(141 39)"/><use href="#d" transform="translate(175 39)"/><use href="#f" transform="translate(209 39)"/><use href="#f" transform="translate(5 73)"/><use href="#a" transform="translate(39 73)"/><use href="#g" transform="translate(73 73)"/><use href="#d" transform="translate(107 73)"/><use href="#b" transform="translate(141 73)"/><use href="#e" transform="translate(175 73)"/><use href="#c" transform="translate(209 73)"/><use href="#b" transform="translate(5 107)"/><use href="#c" transform="translate(39 107)"/><use href="#f" transform="translate(73 107)"/><use href="#e" transform="translate(107 107)"/><use href="#g" transform="translate(141 107)"/><use href="#a" transform="translate(175 107)"/><use href="#d" transform="translate(209 107)"/><use href="#d" transform="translate(5 141)"/><use href="#e" transform="translate(39 141)"/><use href="#g" transform="translate(73 141)"/><use href="#a" transform="translate(107 141)"/><use href="#f" transform="translate(141 141)"/><use href="#b" transform="translate(175 141)"/><use href="#c" transform="translate(209 141)"/><use href="#g" transform="translate(5 175)"/><use href="#c" transform="translate(39 175)"/><use href="#d" transform="translate(73 175)"/><use href="#f" transform="translate(107 175)"/><use href="#b" transform="translate(141 175)"/><use href="#e" transform="translate(175 175)"/><use href="#a" transform="translate(209 175)"/><use href="#b" transform="translate(5 209)"/><use href="#f" transform="translate(39 209)"/><use href="#e" transform="translate(73 209)"/><use href="#c" transform="translate(107 209)"/><use href="#a" transform="translate(141 209)"/><use href="#g" transform="translate(175 209)"/><use href="#d" transform="translate(209 209)"/></svg>