<svg width="238" height="238" viewBox="0 0 238 238" fill="none" xmlns="http://www.w3.org/2000/svg"><path fill="#fff" d="M0 0h238v238H0z"/><mask id="a" style="mask-type:alpha" maskUnits="userSpaceOnUse" x="5" y="5" width="24" height="24"><path fill="#d9d9d9" d="M5 5h24v24H5z"/></mask><g mask="url(#a)"><path d="M24 13q.424 0 .712-.287A.97.97 0 0 0 25 12a.97.97 0 0 0-.288-.713A.97.97 0 0 0 24 11a.97.97 0 0 0-.712.287A.97.97 0 0 0 23 12q0 .424.288.713.287.287.712.287m0 2q-1.275 0-2.137-.863Q21 13.276 21 12q0-1.25.863-2.125Q22.725 9 24 9q1.25 0 2.125.875T27 12q0 1.275-.875 2.137T24 15m-7-3q.625 0 1.063-.425T18.5 10.5q0-.625-.437-1.062A1.45 1.45 0 0 0 17 9q-.65 0-1.075.438A1.47 1.47 0 0 0 15.5 10.5q0 .65.425 1.075T17 12m0 2q-1.474 0-2.488-1.012Q13.5 11.975 13.5 10.5q0-1.45 1.012-2.475T17 7q1.45 0 2.475 1.025A3.37 3.37 0 0 1 20.5 10.5q0 1.475-1.025 2.488A3.4 3.4 0 0 1 17 14m-4 4.375q0 .75.8 1.75T17 23.3q2.35-2.125 3.175-3.125t.825-1.8q0-.575-.375-.975T19.7 17q-.35 0-.662.15t-.513.425L17.325 19h-.675l-1.2-1.425a1.34 1.34 0 0 0-.512-.425Q14.625 17 14.3 17q-.575 0-.937.4a1.4 1.4 0 0 0-.363.975m-2 0q0-1.325.9-2.35T14.3 15q.775 0 1.487.35T17 16.3q.5-.6 1.2-.95t1.5-.35q1.5 0 2.4 1.038.9 1.036.9 2.337 0 1.325-.962 2.613Q21.075 22.275 18.1 25L17 26l-1.1-1q-3.025-2.75-3.963-4.025Q11 19.7 11 18.375M10 13q.424 0 .713-.287A.97.97 0 0 0 11 12a.97.97 0 0 0-.287-.713A.97.97 0 0 0 10 11a.97.97 0 0 0-.713.287A.97.97 0 0 0 9 12q0 .424.287.713Q9.576 13 10 13m7.075 14v-2H25v-7h-2.95v-2H25q.824 0 1.413.587Q27 17.176 27 18v9zM9 25h8.075v2H7v-9q0-.824.575-1.413A1.9 1.9 0 0 1 9 16h2.95v2H9zm1-10q-1.275 0-2.137-.863Q7 13.276 7 12q0-1.25.862-2.125Q8.726 9 10 9q1.25 0 2.125.875T13 12q0 1.275-.875 2.137T10 15" fill="red"/></g><mask id="b" style="mask-type:alpha" maskUnits="userSpaceOnUse" x="39" y="5" width="24" height="24"><path fill="#d9d9d9" d="M39 5h24v24H39z"/></mask><g mask="url(#b)"><path d="M46.356 26.5v-2.02l2.923-2.051v-3.965L41.5 21.587v-2.481l7.779-5.466V9.221q0-.71.506-1.215A1.66 1.66 0 0 1 51 7.5q.71 0 1.215.506.507.505.506 1.215v4.42l7.779 5.465v2.48l-7.779-3.122v3.965l2.914 2.052V26.5L51 25.096z" fill="red"/></g><mask id="c" style="mask-type:alpha" maskUnits="userSpaceOnUse" x="73" y="5" width="24" height="24"><path fill="#d9d9d9" d="M73 5h24v24H73z"/></mask><g mask="url(#c)"><path d="M76 26V12h4V8h10v8h4v10h-8v-4h-2v4zm2-2h2v-2h-2zm0-4h2v-2h-2zm0-4h2v-2h-2zm4 4h2v-2h-2zm0-4h2v-2h-2zm0-4h2v-2h-2zm4 8h2v-2h-2zm0-4h2v-2h-2zm0-4h2v-2h-2zm4 12h2v-2h-2zm0-4h2v-2h-2z" fill="red"/></g><mask id="d" style="mask-type:alpha" maskUnits="userSpaceOnUse" x="107" y="5" width="24" height="24"><path fill="#d9d9d9" d="M107 5h24v24h-24z"/></mask><g mask="url(#d)"><path d="m117.55 23.2 5.175-6.2h-4l.725-5.675L114.825 18h3.475zM115 27l1-7h-5l9-13h2l-1 8h6l-10 12z" fill="red"/></g><mask id="e" style="mask-type:alpha" maskUnits="userSpaceOnUse" x="141" y="5" width="24" height="24"><path fill="#d9d9d9" d="M141 5h24v24h-24z"/></mask><g mask="url(#e)"><path d="M152.15 27q-.375 0-.75-.15t-.675-.45l-7.15-7.15q-.3-.3-.437-.663a2.06 2.06 0 0 1 0-1.487q.137-.375.437-.675l8.8-8.825q.275-.276.65-.437Q153.4 7 153.8 7h7.175q.825 0 1.413.588.587.587.587 1.412v7.175a1.98 1.98 0 0 1-.575 1.4l-8.825 8.825q-.3.3-.675.45t-.75.15m0-2 8.825-8.85V9h-7.15L145 17.85zm6.325-12q.625 0 1.063-.437.437-.438.437-1.063t-.437-1.062a1.45 1.45 0 0 0-1.063-.438q-.625 0-1.062.438a1.45 1.45 0 0 0-.438 1.062q0 .624.438 1.063.437.437 1.062.437" fill="red"/></g><mask id="f" style="mask-type:alpha" maskUnits="userSpaceOnUse" x="175" y="5" width="24" height="24"><path fill="#d9d9d9" d="M175 5h24v24h-24z"/></mask><g mask="url(#f)"><path d="M181 25q-.825 0-1.412-.587A1.93 1.93 0 0 1 179 23q0-.824.588-1.413A1.92 1.92 0 0 1 181 21q.825 0 1.413.587.587.588.587 1.413 0 .824-.587 1.413A1.93 1.93 0 0 1 181 25m6 0q-.825 0-1.412-.587A1.93 1.93 0 0 1 185 23q0-.824.588-1.413A1.92 1.92 0 0 1 187 21q.825 0 1.413.587.587.588.587 1.413 0 .824-.587 1.413A1.93 1.93 0 0 1 187 25m6 0q-.825 0-1.412-.587A1.93 1.93 0 0 1 191 23q0-.824.588-1.413A1.92 1.92 0 0 1 193 21q.825 0 1.413.587.587.588.587 1.413 0 .824-.587 1.413A1.93 1.93 0 0 1 193 25m-12-6q-.825 0-1.412-.587A1.93 1.93 0 0 1 179 17q0-.825.588-1.412A1.92 1.92 0 0 1 181 15q.825 0 1.413.588.587.587.587 1.412 0 .824-.587 1.413A1.93 1.93 0 0 1 181 19m6 0q-.825 0-1.412-.587A1.93 1.93 0 0 1 185 17q0-.825.588-1.412A1.92 1.92 0 0 1 187 15q.825 0 1.413.588.587.587.587 1.412 0 .824-.587 1.413A1.93 1.93 0 0 1 187 19m6 0q-.825 0-1.412-.587A1.93 1.93 0 0 1 191 17q0-.825.588-1.412A1.92 1.92 0 0 1 193 15q.825 0 1.413.588.587.587.587 1.412 0 .824-.587 1.413A1.93 1.93 0 0 1 193 19m-12-6q-.825 0-1.412-.588A1.93 1.93 0 0 1 179 11q0-.825.588-1.412A1.92 1.92 0 0 1 181 9q.825 0 1.413.588.587.587.587 1.412t-.587 1.412A1.93 1.93 0 0 1 181 13m6 0q-.825 0-1.412-.588A1.93 1.93 0 0 1 185 11q0-.825.588-1.412A1.92 1.92 0 0 1 187 9q.825 0 1.413.588.587.587.587 1.412t-.587 1.412A1.93 1.93 0 0 1 187 13m6 0q-.825 0-1.412-.588A1.93 1.93 0 0 1 191 11q0-.825.588-1.412A1.92 1.92 0 0 1 193 9q.825 0 1.413.588.587.587.587 1.412t-.587 1.412A1.93 1.93 0 0 1 193 13" fill="red"/></g><mask id="g" style="mask-type:alpha" maskUnits="userSpaceOnUse" x="209" y="5" width="24" height="24"><path fill="#d9d9d9" d="M209 5h24v24h-24z"/></mask><g mask="url(#g)"><path d="M215.5 25q-2.3 0-3.9-1.6t-1.6-3.9q0-1.95 1.212-3.437 1.213-1.488 3.038-1.913a6.96 6.96 0 0 1 2.475-3.7Q218.575 9 221 9q2.975 0 4.988 2.063Q228 13.124 228 16q1.875.2 2.938 1.55Q232 18.9 232 20.475q0 1.875-1.312 3.2Q229.374 25 227.5 25zm0-2h12q1.05 0 1.775-.725A2.42 2.42 0 0 0 230 20.5q0-1.05-.725-1.775T227.5 18H226v-2q0-2.075-1.462-3.537Q223.074 11 221 11q-1.575 0-2.8.863a5.1 5.1 0 0 0-1.8 2.212q1.95.326 3.275 1.838T221 19.5h-2q0-1.45-1.025-2.475A3.37 3.37 0 0 0 215.5 16q-1.45 0-2.475 1.025A3.37 3.37 0 0 0 212 19.5q0 1.45 1.025 2.475A3.37 3.37 0 0 0 215.5 23" fill="red"/></g><mask id="h" style="mask-type:alpha" maskUnits="userSpaceOnUse" x="5" y="39" width="24" height="24"><path fill="#d9d9d9" d="M5 39h24v24H5z"/></mask><g mask="url(#h)"><path d="M11.5 59q-2.3 0-3.9-1.6T6 53.5q0-1.95 1.213-3.437 1.212-1.488 3.037-1.913a6.96 6.96 0 0 1 2.475-3.7Q14.575 43 17 43q2.975 0 4.988 2.063Q24 47.124 24 50q1.875.2 2.938 1.55Q28 52.9 28 54.475q0 1.875-1.312 3.2T23.5 59zm0-2h12q1.05 0 1.775-.725T26 54.5t-.725-1.775T23.5 52H22v-2q0-2.074-1.462-3.538Q19.074 45 17 45q-1.575 0-2.8.862a5.1 5.1 0 0 0-1.8 2.213q1.95.326 3.275 1.837Q17 51.427 17 53.5h-2q0-1.45-1.025-2.475A3.37 3.37 0 0 0 11.5 50q-1.45 0-2.475 1.025A3.37 3.37 0 0 0 8 53.5q0 1.45 1.025 2.475A3.37 3.37 0 0 0 11.5 57" fill="red"/></g><mask id="i" style="mask-type:alpha" maskUnits="userSpaceOnUse" x="39" y="39" width="24" height="24"><path fill="#d9d9d9" d="M39 39h24v24H39z"/></mask><g mask="url(#i)"><path d="M50.15 61q-.375 0-.75-.15t-.675-.45l-7.15-7.15q-.3-.3-.437-.663a2.06 2.06 0 0 1 0-1.487q.137-.375.437-.675l8.8-8.825q.275-.276.65-.437A1.9 1.9 0 0 1 51.8 41h7.175q.824 0 1.413.587.587.588.587 1.413v7.175a1.98 1.98 0 0 1-.575 1.4L51.575 60.4q-.3.3-.675.45t-.75.15m0-2 8.825-8.85V43h-7.15L43 51.85zm6.325-12q.625 0 1.063-.437.437-.438.437-1.063t-.437-1.062A1.45 1.45 0 0 0 56.475 44q-.625 0-1.062.438a1.45 1.45 0 0 0-.438 1.062q0 .624.438 1.063.437.437 1.062.437" fill="red"/></g><mask id="j" style="mask-type:alpha" maskUnits="userSpaceOnUse" x="73" y="39" width="24" height="24"><path fill="#d9d9d9" d="M73 39h24v24H73z"/></mask><g mask="url(#j)"><path d="M92 47q.424 0 .713-.288A.97.97 0 0 0 93 46a.97.97 0 0 0-.287-.712A.97.97 0 0 0 92 45a.97.97 0 0 0-.713.288A.97.97 0 0 0 91 46q0 .424.287.712.288.288.713.288m0 2q-1.274 0-2.138-.862Q89 47.275 89 46q0-1.25.862-2.125Q90.727 43 92 43q1.25 0 2.125.875T95 46q0 1.275-.875 2.138Q93.25 49 92 49m-7-3q.624 0 1.063-.425.437-.425.437-1.075 0-.625-.437-1.062A1.45 1.45 0 0 0 85 43q-.65 0-1.075.438A1.47 1.47 0 0 0 83.5 44.5q0 .65.425 1.075T85 46m0 2q-1.475 0-2.487-1.013T81.5 44.5q0-1.45 1.013-2.475T85 41q1.45 0 2.475 1.025A3.37 3.37 0 0 1 88.5 44.5q0 1.475-1.025 2.487A3.4 3.4 0 0 1 85 48m-4 4.375q0 .75.8 1.75T85 57.3q2.35-2.125 3.175-3.125t.825-1.8q0-.575-.375-.975T87.7 51q-.35 0-.663.15-.312.15-.512.425L85.325 53h-.675l-1.2-1.425a1.34 1.34 0 0 0-.513-.425Q82.626 51 82.3 51q-.575 0-.937.4a1.4 1.4 0 0 0-.363.975m-2 0q0-1.325.9-2.35T82.3 49q.776 0 1.487.35.713.35 1.213.95.5-.6 1.2-.95t1.5-.35q1.5 0 2.4 1.038.9 1.037.9 2.337 0 1.325-.963 2.612Q89.075 56.275 86.1 59L85 60l-1.1-1q-3.025-2.75-3.963-4.025-.936-1.275-.937-2.6M78 47q.424 0 .713-.288A.97.97 0 0 0 79 46a.97.97 0 0 0-.287-.712A.97.97 0 0 0 78 45a.97.97 0 0 0-.713.288A.97.97 0 0 0 77 46q0 .424.287.712.288.288.713.288m7.075 14v-2H93v-7h-2.95v-2H93q.825 0 1.412.587Q95 51.176 95 52v9zM77 59h8.075v2H75v-9q0-.824.575-1.413A1.9 1.9 0 0 1 77 50h2.95v2H77zm1-10q-1.274 0-2.138-.862Q75 47.275 75 46q0-1.25.862-2.125Q76.726 43 78 43q1.25 0 2.125.875T81 46q0 1.275-.875 2.138Q79.25 49 78 49" fill="red"/></g><mask id="k" style="mask-type:alpha" maskUnits="userSpaceOnUse" x="107" y="39" width="24" height="24"><path fill="#d9d9d9" d="M107 39h24v24h-24z"/></mask><g mask="url(#k)"><path d="M114.356 60.5v-2.02l2.923-2.051v-3.965l-7.779 3.123v-2.481l7.779-5.465v-4.42q0-.71.506-1.215A1.66 1.66 0 0 1 119 41.5q.71 0 1.215.506.506.505.506 1.215v4.42l7.779 5.465v2.48l-7.779-3.122v3.965l2.914 2.052V60.5L119 59.096z" fill="red"/></g><mask id="l" style="mask-type:alpha" maskUnits="userSpaceOnUse" x="141" y="39" width="24" height="24"><path fill="#d9d9d9" d="M141 39h24v24h-24z"/></mask><g mask="url(#l)"><path d="M144 60V46h4v-4h10v8h4v10h-8v-4h-2v4zm2-2h2v-2h-2zm0-4h2v-2h-2zm0-4h2v-2h-2zm4 4h2v-2h-2zm0-4h2v-2h-2zm0-4h2v-2h-2zm4 8h2v-2h-2zm0-4h2v-2h-2zm0-4h2v-2h-2zm4 12h2v-2h-2zm0-4h2v-2h-2z" fill="red"/></g><mask id="m" style="mask-type:alpha" maskUnits="userSpaceOnUse" x="175" y="39" width="24" height="24"><path fill="#d9d9d9" d="M175 39h24v24h-24z"/></mask><g mask="url(#m)"><path d="m185.55 57.2 5.175-6.2h-4l.725-5.675L182.825 52h3.475zM183 61l1-7h-5l9-13h2l-1 8h6l-10 12z" fill="red"/></g><mask id="n" style="mask-type:alpha" maskUnits="userSpaceOnUse" x="209" y="39" width="24" height="24"><path fill="#d9d9d9" d="M209 39h24v24h-24z"/></mask><g mask="url(#n)"><path d="M215 59q-.825 0-1.412-.587A1.93 1.93 0 0 1 213 57q0-.824.588-1.413A1.92 1.92 0 0 1 215 55q.825 0 1.413.587.587.588.587 1.413 0 .824-.587 1.413A1.93 1.93 0 0 1 215 59m6 0q-.825 0-1.412-.587A1.93 1.93 0 0 1 219 57q0-.824.588-1.413A1.92 1.92 0 0 1 221 55q.825 0 1.413.587.587.588.587 1.413 0 .824-.587 1.413A1.93 1.93 0 0 1 221 59m6 0q-.825 0-1.412-.587A1.93 1.93 0 0 1 225 57q0-.824.588-1.413A1.92 1.92 0 0 1 227 55q.825 0 1.413.587.587.588.587 1.413 0 .824-.587 1.413A1.93 1.93 0 0 1 227 59m-12-6q-.825 0-1.412-.587A1.93 1.93 0 0 1 213 51q0-.824.588-1.413A1.92 1.92 0 0 1 215 49q.825 0 1.413.587.587.588.587 1.413 0 .824-.587 1.413A1.93 1.93 0 0 1 215 53m6 0q-.825 0-1.412-.587A1.93 1.93 0 0 1 219 51q0-.824.588-1.413A1.92 1.92 0 0 1 221 49q.825 0 1.413.587.587.588.587 1.413 0 .824-.587 1.413A1.93 1.93 0 0 1 221 53m6 0q-.825 0-1.412-.587A1.93 1.93 0 0 1 225 51q0-.824.588-1.413A1.92 1.92 0 0 1 227 49q.825 0 1.413.587.587.588.587 1.413 0 .824-.587 1.413A1.93 1.93 0 0 1 227 53m-12-6q-.825 0-1.412-.587A1.93 1.93 0 0 1 213 45q0-.824.588-1.413A1.92 1.92 0 0 1 215 43q.825 0 1.413.587.587.588.587 1.413 0 .824-.587 1.413A1.93 1.93 0 0 1 215 47m6 0q-.825 0-1.412-.587A1.93 1.93 0 0 1 219 45q0-.824.588-1.413A1.92 1.92 0 0 1 221 43q.825 0 1.413.587.587.588.587 1.413 0 .824-.587 1.413A1.93 1.93 0 0 1 221 47m6 0q-.825 0-1.412-.587A1.93 1.93 0 0 1 225 45q0-.824.588-1.413A1.92 1.92 0 0 1 227 43q.825 0 1.413.587.587.588.587 1.413 0 .824-.587 1.413A1.93 1.93 0 0 1 227 47" fill="red"/></g><mask id="o" style="mask-type:alpha" maskUnits="userSpaceOnUse" x="5" y="73" width="24" height="24"><path fill="#d9d9d9" d="M5 73h24v24H5z"/></mask><g mask="url(#o)"><path d="M11 93q-.825 0-1.412-.588A1.93 1.93 0 0 1 9 91q0-.825.588-1.412A1.93 1.93 0 0 1 11 89q.825 0 1.412.588Q13 90.175 13 91t-.588 1.412A1.93 1.93 0 0 1 11 93m6 0q-.825 0-1.412-.588A1.93 1.93 0 0 1 15 91q0-.825.588-1.412A1.93 1.93 0 0 1 17 89q.824 0 1.413.588Q19 90.175 19 91t-.587 1.412A1.93 1.93 0 0 1 17 93m6 0q-.824 0-1.413-.588A1.93 1.93 0 0 1 21 91q0-.825.587-1.412A1.93 1.93 0 0 1 23 89q.824 0 1.413.588Q25 90.175 25 91t-.587 1.412A1.93 1.93 0 0 1 23 93m-12-6q-.825 0-1.412-.588A1.93 1.93 0 0 1 9 85q0-.825.588-1.412A1.93 1.93 0 0 1 11 83q.825 0 1.412.588Q13 84.175 13 85t-.588 1.412A1.93 1.93 0 0 1 11 87m6 0q-.825 0-1.412-.588A1.93 1.93 0 0 1 15 85q0-.825.588-1.412A1.93 1.93 0 0 1 17 83q.824 0 1.413.588Q19 84.175 19 85t-.587 1.412A1.93 1.93 0 0 1 17 87m6 0q-.824 0-1.413-.588A1.93 1.93 0 0 1 21 85q0-.825.587-1.412A1.93 1.93 0 0 1 23 83q.824 0 1.413.588Q25 84.175 25 85t-.587 1.412A1.93 1.93 0 0 1 23 87m-12-6q-.825 0-1.412-.588A1.93 1.93 0 0 1 9 79q0-.825.588-1.412A1.93 1.93 0 0 1 11 77q.825 0 1.412.588Q13 78.175 13 79t-.588 1.412A1.93 1.93 0 0 1 11 81m6 0q-.825 0-1.412-.588A1.93 1.93 0 0 1 15 79q0-.825.588-1.412A1.93 1.93 0 0 1 17 77q.824 0 1.413.588Q19 78.175 19 79t-.587 1.412A1.93 1.93 0 0 1 17 81m6 0q-.824 0-1.413-.588A1.93 1.93 0 0 1 21 79q0-.825.587-1.412A1.93 1.93 0 0 1 23 77q.824 0 1.413.588Q25 78.175 25 79t-.587 1.412A1.93 1.93 0 0 1 23 81" fill="red"/></g><mask id="p" style="mask-type:alpha" maskUnits="userSpaceOnUse" x="39" y="73" width="24" height="24"><path fill="#d9d9d9" d="M39 73h24v24H39z"/></mask><g mask="url(#p)"><path d="M58 81q.424 0 .712-.287A.97.97 0 0 0 59 80a.97.97 0 0 0-.288-.713A.97.97 0 0 0 58 79a.97.97 0 0 0-.712.287A.97.97 0 0 0 57 80q0 .424.288.713.287.287.712.287m0 2q-1.274 0-2.138-.862Q55 81.275 55 80q0-1.25.862-2.125Q56.726 77 58 77q1.25 0 2.125.875T61 80q0 1.275-.875 2.138Q59.25 83 58 83m-7-3q.624 0 1.063-.425.437-.425.437-1.075 0-.625-.437-1.062A1.45 1.45 0 0 0 51 77q-.65 0-1.075.438A1.47 1.47 0 0 0 49.5 78.5q0 .65.425 1.075T51 80m0 2q-1.474 0-2.487-1.013T47.5 78.5q0-1.45 1.013-2.475T51 75q1.45 0 2.475 1.025A3.37 3.37 0 0 1 54.5 78.5q0 1.475-1.025 2.487A3.4 3.4 0 0 1 51 82m-4 4.375q0 .75.8 1.75T51 91.3q2.35-2.125 3.175-3.125t.825-1.8q0-.575-.375-.975T53.7 85q-.35 0-.663.15-.312.15-.512.425L51.325 87h-.675l-1.2-1.425a1.34 1.34 0 0 0-.513-.425Q48.626 85 48.3 85q-.575 0-.937.4a1.4 1.4 0 0 0-.363.975m-2 0q0-1.325.9-2.35T48.3 83q.776 0 1.488.35.713.35 1.212.95.5-.6 1.2-.95t1.5-.35q1.5 0 2.4 1.037.9 1.038.9 2.338 0 1.325-.962 2.612Q55.075 90.276 52.1 93L51 94l-1.1-1q-3.025-2.75-3.962-4.025-.939-1.275-.938-2.6M44 81q.424 0 .712-.287A.97.97 0 0 0 45 80a.97.97 0 0 0-.288-.713A.97.97 0 0 0 44 79a.97.97 0 0 0-.712.287A.97.97 0 0 0 43 80q0 .424.288.713.287.287.712.287m7.075 14v-2H59v-7h-2.95v-2H59q.824 0 1.413.588Q61 85.175 61 86v9zM43 93h8.075v2H41v-9q0-.825.575-1.412A1.9 1.9 0 0 1 43 84h2.95v2H43zm1-10q-1.275 0-2.138-.862Q41 81.275 41 80q0-1.25.862-2.125Q42.726 77 44 77q1.25 0 2.125.875T47 80q0 1.275-.875 2.138Q45.25 83 44 83" fill="red"/></g><mask id="q" style="mask-type:alpha" maskUnits="userSpaceOnUse" x="73" y="73" width="24" height="24"><path fill="#d9d9d9" d="M73 73h24v24H73z"/></mask><g mask="url(#q)"><path d="M79.5 93q-2.3 0-3.9-1.6T74 87.5q0-1.95 1.213-3.437 1.212-1.488 3.037-1.913a6.96 6.96 0 0 1 2.475-3.7Q82.575 77 85 77q2.975 0 4.987 2.063Q92 81.124 92 84q1.876.2 2.938 1.55T96 88.475q0 1.875-1.312 3.2Q93.374 93 91.5 93zm0-2h12q1.05 0 1.775-.725T94 88.5t-.725-1.775T91.5 86H90v-2q0-2.075-1.463-3.537Q87.075 79 85 79q-1.575 0-2.8.862a5.1 5.1 0 0 0-1.8 2.213q1.95.326 3.275 1.837Q85 85.426 85 87.5h-2q0-1.45-1.025-2.475A3.37 3.37 0 0 0 79.5 84q-1.45 0-2.475 1.025A3.37 3.37 0 0 0 76 87.5q0 1.45 1.025 2.475A3.37 3.37 0 0 0 79.5 91" fill="red"/></g><mask id="r" style="mask-type:alpha" maskUnits="userSpaceOnUse" x="107" y="73" width="24" height="24"><path fill="#d9d9d9" d="M107 73h24v24h-24z"/></mask><g mask="url(#r)"><path d="m117.55 91.2 5.175-6.2h-4l.725-5.675L114.825 86h3.475zM115 95l1-7h-5l9-13h2l-1 8h6l-10 12z" fill="red"/></g><mask id="s" style="mask-type:alpha" maskUnits="userSpaceOnUse" x="141" y="73" width="24" height="24"><path fill="#d9d9d9" d="M141 73h24v24h-24z"/></mask><g mask="url(#s)"><path d="M148.356 94.5v-2.02l2.923-2.051v-3.966l-7.779 3.124v-2.481l7.779-5.465v-4.42q0-.71.506-1.215A1.66 1.66 0 0 1 153 75.5q.71 0 1.215.506.506.505.506 1.215v4.42l7.779 5.465v2.48l-7.779-3.123v3.966l2.914 2.052V94.5L153 93.096z" fill="red"/></g><mask id="t" style="mask-type:alpha" maskUnits="userSpaceOnUse" x="175" y="73" width="24" height="24"><path fill="#d9d9d9" d="M175 73h24v24h-24z"/></mask><g mask="url(#t)"><path d="M186.15 95q-.375 0-.75-.15t-.675-.45l-7.15-7.15q-.3-.3-.437-.662a2.06 2.06 0 0 1 0-1.488q.137-.375.437-.675l8.8-8.825q.275-.275.65-.437A1.9 1.9 0 0 1 187.8 75h7.175q.825 0 1.413.588.587.587.587 1.412v7.175a1.98 1.98 0 0 1-.575 1.4l-8.825 8.825q-.3.3-.675.45t-.75.15m0-2 8.825-8.85V77h-7.15L179 85.85zm6.325-12q.625 0 1.063-.437.437-.438.437-1.063t-.437-1.062a1.45 1.45 0 0 0-1.063-.438q-.625 0-1.062.438a1.45 1.45 0 0 0-.438 1.062q0 .625.438 1.063.437.437 1.062.437" fill="red"/></g><mask id="u" style="mask-type:alpha" maskUnits="userSpaceOnUse" x="209" y="73" width="24" height="24"><path fill="#d9d9d9" d="M209 73h24v24h-24z"/></mask><g mask="url(#u)"><path d="M212 94V80h4v-4h10v8h4v10h-8v-4h-2v4zm2-2h2v-2h-2zm0-4h2v-2h-2zm0-4h2v-2h-2zm4 4h2v-2h-2zm0-4h2v-2h-2zm0-4h2v-2h-2zm4 8h2v-2h-2zm0-4h2v-2h-2zm0-4h2v-2h-2zm4 12h2v-2h-2zm0-4h2v-2h-2z" fill="red"/></g><mask id="v" style="mask-type:alpha" maskUnits="userSpaceOnUse" x="5" y="107" width="24" height="24"><path fill="#d9d9d9" d="M5 107h24v24H5z"/></mask><g mask="url(#v)"><path d="M12.356 128.5v-2.019l2.923-2.052v-3.965L7.5 123.586v-2.48l7.779-5.465v-4.42q0-.71.506-1.215A1.66 1.66 0 0 1 17 109.5q.71 0 1.215.506.507.506.506 1.215v4.42l7.779 5.465v2.48l-7.779-3.122v3.965l2.913 2.052v2.019L17 127.096z" fill="red"/></g><mask id="w" style="mask-type:alpha" maskUnits="userSpaceOnUse" x="39" y="107" width="24" height="24"><path fill="#d9d9d9" d="M39 107h24v24H39z"/></mask><g mask="url(#w)"><path d="M42 128v-14h4v-4h10v8h4v10h-8v-4h-2v4zm2-2h2v-2h-2zm0-4h2v-2h-2zm0-4h2v-2h-2zm4 4h2v-2h-2zm0-4h2v-2h-2zm0-4h2v-2h-2zm4 8h2v-2h-2zm0-4h2v-2h-2zm0-4h2v-2h-2zm4 12h2v-2h-2zm0-4h2v-2h-2z" fill="red"/></g><mask id="x" style="mask-type:alpha" maskUnits="userSpaceOnUse" x="73" y="107" width="24" height="24"><path fill="#d9d9d9" d="M73 107h24v24H73z"/></mask><g mask="url(#x)"><path d="M79 127q-.825 0-1.412-.587A1.93 1.93 0 0 1 77 125q0-.825.588-1.412A1.93 1.93 0 0 1 79 123q.825 0 1.412.588.588.587.588 1.412t-.588 1.413A1.93 1.93 0 0 1 79 127m6 0q-.825 0-1.412-.587A1.93 1.93 0 0 1 83 125q0-.825.588-1.412A1.93 1.93 0 0 1 85 123q.825 0 1.412.588.588.587.588 1.412t-.588 1.413A1.93 1.93 0 0 1 85 127m6 0q-.825 0-1.412-.587A1.93 1.93 0 0 1 89 125q0-.825.588-1.412A1.93 1.93 0 0 1 91 123q.825 0 1.412.588.588.587.588 1.412t-.588 1.413A1.93 1.93 0 0 1 91 127m-12-6q-.825 0-1.412-.587A1.93 1.93 0 0 1 77 119q0-.825.588-1.412A1.93 1.93 0 0 1 79 117q.825 0 1.412.588.588.587.588 1.412t-.588 1.413A1.93 1.93 0 0 1 79 121m6 0q-.825 0-1.412-.587A1.93 1.93 0 0 1 83 119q0-.825.588-1.412A1.93 1.93 0 0 1 85 117q.825 0 1.412.588.588.587.588 1.412t-.588 1.413A1.93 1.93 0 0 1 85 121m6 0q-.825 0-1.412-.587A1.93 1.93 0 0 1 89 119q0-.825.588-1.412A1.93 1.93 0 0 1 91 117q.825 0 1.412.588.588.587.588 1.412t-.588 1.413A1.93 1.93 0 0 1 91 121m-12-6q-.825 0-1.412-.587A1.93 1.93 0 0 1 77 113q0-.825.588-1.412A1.93 1.93 0 0 1 79 111q.825 0 1.412.588.588.587.588 1.412t-.588 1.413A1.93 1.93 0 0 1 79 115m6 0q-.825 0-1.412-.587A1.93 1.93 0 0 1 83 113q0-.825.588-1.412A1.93 1.93 0 0 1 85 111q.825 0 1.412.588.588.587.588 1.412t-.588 1.413A1.93 1.93 0 0 1 85 115m6 0q-.825 0-1.412-.587A1.93 1.93 0 0 1 89 113q0-.825.588-1.412A1.93 1.93 0 0 1 91 111q.825 0 1.412.588.588.587.588 1.412t-.588 1.413A1.93 1.93 0 0 1 91 115" fill="red"/></g><mask id="y" style="mask-type:alpha" maskUnits="userSpaceOnUse" x="107" y="107" width="24" height="24"><path fill="#d9d9d9" d="M107 107h24v24h-24z"/></mask><g mask="url(#y)"><path d="M118.15 129q-.375 0-.75-.15t-.675-.45l-7.15-7.15q-.3-.3-.437-.662a2.06 2.06 0 0 1 0-1.488q.137-.375.437-.675l8.8-8.825a2.07 2.07 0 0 1 1.425-.6h7.175q.825 0 1.413.588.587.587.587 1.412v7.175a1.98 1.98 0 0 1-.575 1.4l-8.825 8.825q-.3.3-.675.45t-.75.15m0-2 8.825-8.85V111h-7.15L111 119.85zm6.325-12q.625 0 1.063-.438.437-.437.437-1.062t-.437-1.062a1.45 1.45 0 0 0-1.063-.438q-.626 0-1.062.438a1.44 1.44 0 0 0-.438 1.062q0 .625.438 1.062.436.438 1.062.438" fill="red"/></g><mask id="z" style="mask-type:alpha" maskUnits="userSpaceOnUse" x="141" y="107" width="24" height="24"><path fill="#d9d9d9" d="M141 107h24v24h-24z"/></mask><g mask="url(#z)"><path d="M147.5 127q-2.3 0-3.9-1.6t-1.6-3.9q0-1.95 1.212-3.438 1.213-1.487 3.038-1.912a6.96 6.96 0 0 1 2.475-3.7Q150.575 111 153 111q2.975 0 4.988 2.062Q160 115.125 160 118q1.875.2 2.938 1.55Q164 120.9 164 122.475q0 1.875-1.312 3.2Q161.374 127 159.5 127zm0-2h12q1.05 0 1.775-.725T162 122.5t-.725-1.775T159.5 120H158v-2q0-2.075-1.462-3.537Q155.074 113 153 113q-1.575 0-2.8.862a5.1 5.1 0 0 0-1.8 2.213q1.95.325 3.275 1.837T153 121.5h-2q0-1.45-1.025-2.475A3.37 3.37 0 0 0 147.5 118q-1.45 0-2.475 1.025A3.37 3.37 0 0 0 144 121.5q0 1.45 1.025 2.475A3.37 3.37 0 0 0 147.5 125" fill="red"/></g><mask id="A" style="mask-type:alpha" maskUnits="userSpaceOnUse" x="175" y="107" width="24" height="24"><path fill="#d9d9d9" d="M175 107h24v24h-24z"/></mask><g mask="url(#A)"><path d="M194 115a.97.97 0 0 0 .712-.287A.97.97 0 0 0 195 114a.97.97 0 0 0-.288-.713A.97.97 0 0 0 194 113a.97.97 0 0 0-.712.287.97.97 0 0 0-.288.713q0 .425.288.713A.97.97 0 0 0 194 115m0 2q-1.275 0-2.137-.862Q191 115.275 191 114q0-1.25.863-2.125.862-.875 2.137-.875 1.25 0 2.125.875T197 114q0 1.275-.875 2.138-.875.862-2.125.862m-7-3q.625 0 1.062-.425t.438-1.075q0-.625-.438-1.062A1.44 1.44 0 0 0 187 111q-.65 0-1.075.438a1.47 1.47 0 0 0-.425 1.062q0 .65.425 1.075T187 114m0 2q-1.475 0-2.487-1.012-1.013-1.014-1.013-2.488 0-1.45 1.013-2.475T187 109q1.45 0 2.475 1.025a3.37 3.37 0 0 1 1.025 2.475q0 1.474-1.025 2.488Q188.45 116 187 116m-4 4.375q0 .75.8 1.75t3.2 3.175q2.35-2.125 3.175-3.125t.825-1.8q0-.575-.375-.975t-.925-.4q-.35 0-.662.15t-.513.425l-1.2 1.425h-.675l-1.2-1.425a1.34 1.34 0 0 0-.512-.425q-.313-.15-.638-.15-.575 0-.937.4a1.4 1.4 0 0 0-.363.975m-2 0q0-1.325.9-2.35t2.4-1.025q.775 0 1.488.35.712.35 1.212.95.5-.6 1.2-.95t1.5-.35q1.5 0 2.4 1.038.9 1.037.9 2.337 0 1.325-.962 2.613-.963 1.287-3.938 4.012l-1.1 1-1.1-1q-3.026-2.75-3.962-4.025-.939-1.275-.938-2.6M180 115a.97.97 0 0 0 .713-.287A.97.97 0 0 0 181 114a.97.97 0 0 0-.287-.713A.97.97 0 0 0 180 113a.97.97 0 0 0-.712.287.97.97 0 0 0-.288.713q0 .425.288.713A.97.97 0 0 0 180 115m7.075 14v-2H195v-7h-2.95v-2H195q.825 0 1.413.588.587.587.587 1.412v9zM179 127h8.075v2H177v-9q0-.825.575-1.412A1.9 1.9 0 0 1 179 118h2.95v2H179zm1-10q-1.275 0-2.137-.862Q177 115.275 177 114q0-1.25.863-2.125.862-.875 2.137-.875 1.25 0 2.125.875T183 114q0 1.275-.875 2.138-.875.862-2.125.862" fill="red"/></g><mask id="B" style="mask-type:alpha" maskUnits="userSpaceOnUse" x="209" y="107" width="24" height="24"><path fill="#d9d9d9" d="M209 107h24v24h-24z"/></mask><g mask="url(#B)"><path d="m219.55 125.2 5.175-6.2h-4l.725-5.675-4.625 6.675h3.475zM217 129l1-7h-5l9-13h2l-1 8h6l-10 12z" fill="red"/></g><mask id="C" style="mask-type:alpha" maskUnits="userSpaceOnUse" x="5" y="141" width="24" height="24"><path fill="#d9d9d9" d="M5 141h24v24H5z"/></mask><g mask="url(#C)"><path d="m15.55 159.2 5.175-6.2h-4l.725-5.675L12.825 154H16.3zM13 163l1-7H9l9-13h2l-1 8h6l-10 12z" fill="red"/></g><mask id="D" style="mask-type:alpha" maskUnits="userSpaceOnUse" x="39" y="141" width="24" height="24"><path fill="#d9d9d9" d="M39 141h24v24H39z"/></mask><g mask="url(#D)"><path d="M50.15 163q-.375 0-.75-.15t-.675-.45l-7.15-7.15q-.3-.3-.437-.662a2.07 2.07 0 0 1 0-1.488q.137-.375.437-.675l8.8-8.825a2.07 2.07 0 0 1 1.425-.6h7.175q.824 0 1.413.588.587.587.587 1.412v7.175a1.98 1.98 0 0 1-.575 1.4l-8.825 8.825q-.3.3-.675.45t-.75.15m0-2 8.825-8.85V145h-7.15L43 153.85zm6.325-12q.625 0 1.063-.438.437-.437.437-1.062t-.437-1.062a1.45 1.45 0 0 0-1.063-.438q-.625 0-1.062.438a1.44 1.44 0 0 0-.438 1.062q0 .625.438 1.062.437.438 1.062.438" fill="red"/></g><mask id="E" style="mask-type:alpha" maskUnits="userSpaceOnUse" x="73" y="141" width="24" height="24"><path fill="#d9d9d9" d="M73 141h24v24H73z"/></mask><g mask="url(#E)"><path d="M79.5 161q-2.3 0-3.9-1.6t-1.6-3.9q0-1.95 1.213-3.438 1.212-1.487 3.037-1.912a6.96 6.96 0 0 1 2.475-3.7Q82.575 145 85 145q2.975 0 4.987 2.062Q92 149.125 92 152q1.876.2 2.938 1.55T96 156.475q0 1.875-1.312 3.2Q93.374 161 91.5 161zm0-2h12q1.05 0 1.775-.725T94 156.5t-.725-1.775A2.42 2.42 0 0 0 91.5 154H90v-2q0-2.075-1.463-3.537Q87.075 147 85 147q-1.575 0-2.8.862a5.1 5.1 0 0 0-1.8 2.213q1.95.325 3.275 1.837T85 155.5h-2q0-1.45-1.025-2.475A3.37 3.37 0 0 0 79.5 152q-1.45 0-2.475 1.025A3.37 3.37 0 0 0 76 155.5q0 1.45 1.025 2.475A3.37 3.37 0 0 0 79.5 159" fill="red"/></g><mask id="F" style="mask-type:alpha" maskUnits="userSpaceOnUse" x="107" y="141" width="24" height="24"><path fill="#d9d9d9" d="M107 141h24v24h-24z"/></mask><g mask="url(#F)"><path d="M126 149a.97.97 0 0 0 .712-.287A.97.97 0 0 0 127 148a.97.97 0 0 0-.288-.713A.97.97 0 0 0 126 147a.97.97 0 0 0-.712.287.97.97 0 0 0-.288.713q0 .425.288.713A.97.97 0 0 0 126 149m0 2q-1.275 0-2.137-.862Q123 149.275 123 148q0-1.25.863-2.125.862-.875 2.137-.875 1.25 0 2.125.875T129 148q0 1.275-.875 2.138-.875.862-2.125.862m-7-3q.625 0 1.062-.425t.438-1.075q0-.625-.438-1.062A1.44 1.44 0 0 0 119 145q-.65 0-1.075.438a1.47 1.47 0 0 0-.425 1.062q0 .65.425 1.075T119 148m0 2q-1.475 0-2.487-1.012-1.013-1.014-1.013-2.488 0-1.45 1.013-2.475T119 143q1.45 0 2.475 1.025a3.37 3.37 0 0 1 1.025 2.475q0 1.474-1.025 2.488Q120.451 150 119 150m-4 4.375q0 .75.8 1.75t3.2 3.175q2.35-2.125 3.175-3.125t.825-1.8q0-.575-.375-.975t-.925-.4q-.35 0-.662.15-.314.15-.513.425l-1.2 1.425h-.675l-1.2-1.425a1.34 1.34 0 0 0-.512-.425q-.313-.15-.638-.15-.575 0-.937.4a1.4 1.4 0 0 0-.363.975m-2 0q0-1.325.9-2.35t2.4-1.025q.775 0 1.488.35.712.35 1.212.95.5-.6 1.2-.95t1.5-.35q1.5 0 2.4 1.038.9 1.036.9 2.337 0 1.325-.962 2.613-.963 1.287-3.938 4.012l-1.1 1-1.1-1q-3.026-2.75-3.962-4.025-.939-1.275-.938-2.6M112 149a.97.97 0 0 0 .713-.287A.97.97 0 0 0 113 148a.97.97 0 0 0-.287-.713A.97.97 0 0 0 112 147a.97.97 0 0 0-.712.287.97.97 0 0 0-.288.713q0 .425.288.713A.97.97 0 0 0 112 149m7.075 14v-2H127v-7h-2.95v-2H127q.825 0 1.413.588.587.587.587 1.412v9zM111 161h8.075v2H109v-9q0-.825.575-1.412A1.9 1.9 0 0 1 111 152h2.95v2H111zm1-10q-1.275 0-2.137-.862Q109 149.275 109 148q0-1.25.863-2.125.862-.875 2.137-.875 1.25 0 2.125.875T115 148q0 1.275-.875 2.138-.875.862-2.125.862" fill="red"/></g><mask id="G" style="mask-type:alpha" maskUnits="userSpaceOnUse" x="141" y="141" width="24" height="24"><path fill="#d9d9d9" d="M141 141h24v24h-24z"/></mask><g mask="url(#G)"><path d="M147 161q-.825 0-1.412-.587A1.93 1.93 0 0 1 145 159q0-.825.588-1.412A1.92 1.92 0 0 1 147 157q.825 0 1.413.588.587.587.587 1.412a1.93 1.93 0 0 1-.587 1.413A1.93 1.93 0 0 1 147 161m6 0q-.825 0-1.412-.587A1.93 1.93 0 0 1 151 159q0-.825.588-1.412A1.92 1.92 0 0 1 153 157q.825 0 1.413.588.587.587.587 1.412a1.93 1.93 0 0 1-.587 1.413A1.93 1.93 0 0 1 153 161m6 0q-.825 0-1.412-.587A1.93 1.93 0 0 1 157 159q0-.825.588-1.412A1.92 1.92 0 0 1 159 157q.825 0 1.413.588.587.587.587 1.412a1.93 1.93 0 0 1-.587 1.413A1.93 1.93 0 0 1 159 161m-12-6q-.825 0-1.412-.587A1.93 1.93 0 0 1 145 153q0-.825.588-1.412A1.92 1.92 0 0 1 147 151q.825 0 1.413.588.587.587.587 1.412a1.93 1.93 0 0 1-.587 1.413A1.93 1.93 0 0 1 147 155m6 0q-.825 0-1.412-.587A1.93 1.93 0 0 1 151 153q0-.825.588-1.412A1.92 1.92 0 0 1 153 151q.825 0 1.413.588.587.587.587 1.412a1.93 1.93 0 0 1-.587 1.413A1.93 1.93 0 0 1 153 155m6 0q-.825 0-1.412-.587A1.93 1.93 0 0 1 157 153q0-.825.588-1.412A1.92 1.92 0 0 1 159 151q.825 0 1.413.588.587.587.587 1.412a1.93 1.93 0 0 1-.587 1.413A1.93 1.93 0 0 1 159 155m-12-6q-.825 0-1.412-.587A1.93 1.93 0 0 1 145 147q0-.825.588-1.412A1.92 1.92 0 0 1 147 145q.825 0 1.413.588.587.587.587 1.412a1.93 1.93 0 0 1-.587 1.413A1.93 1.93 0 0 1 147 149m6 0q-.825 0-1.412-.587A1.93 1.93 0 0 1 151 147q0-.825.588-1.412A1.92 1.92 0 0 1 153 145q.825 0 1.413.588.587.587.587 1.412a1.93 1.93 0 0 1-.587 1.413A1.93 1.93 0 0 1 153 149m6 0q-.825 0-1.412-.587A1.93 1.93 0 0 1 157 147q0-.825.588-1.412A1.92 1.92 0 0 1 159 145q.825 0 1.413.588.587.587.587 1.412a1.93 1.93 0 0 1-.587 1.413A1.93 1.93 0 0 1 159 149" fill="red"/></g><mask id="H" style="mask-type:alpha" maskUnits="userSpaceOnUse" x="175" y="141" width="24" height="24"><path fill="#d9d9d9" d="M175 141h24v24h-24z"/></mask><g mask="url(#H)"><path d="M182.356 162.5v-2.019l2.923-2.052v-3.965l-7.779 3.122v-2.48l7.779-5.465v-4.42q0-.71.506-1.215A1.66 1.66 0 0 1 187 143.5q.71 0 1.215.506t.506 1.215v4.42l7.779 5.465v2.48l-7.779-3.122v3.965l2.914 2.052v2.019L187 161.096z" fill="red"/></g><mask id="I" style="mask-type:alpha" maskUnits="userSpaceOnUse" x="209" y="141" width="24" height="24"><path fill="#d9d9d9" d="M209 141h24v24h-24z"/></mask><g mask="url(#I)"><path d="M212 162v-14h4v-4h10v8h4v10h-8v-4h-2v4zm2-2h2v-2h-2zm0-4h2v-2h-2zm0-4h2v-2h-2zm4 4h2v-2h-2zm0-4h2v-2h-2zm0-4h2v-2h-2zm4 8h2v-2h-2zm0-4h2v-2h-2zm0-4h2v-2h-2zm4 12h2v-2h-2zm0-4h2v-2h-2z" fill="red"/></g><mask id="J" style="mask-type:alpha" maskUnits="userSpaceOnUse" x="5" y="175" width="24" height="24"><path fill="#d9d9d9" d="M5 175h24v24H5z"/></mask><g mask="url(#J)"><path d="M11.5 195q-2.3 0-3.9-1.6T6 189.5q0-1.95 1.213-3.438 1.212-1.487 3.037-1.912a6.96 6.96 0 0 1 2.475-3.7Q14.575 179 17 179q2.975 0 4.988 2.062Q24 183.125 24 186q1.875.2 2.938 1.55Q28 188.9 28 190.475q0 1.875-1.312 3.2T23.5 195zm0-2h12q1.05 0 1.775-.725T26 190.5t-.725-1.775A2.42 2.42 0 0 0 23.5 188H22v-2q0-2.075-1.462-3.537Q19.074 181 17 181q-1.575 0-2.8.862a5.1 5.1 0 0 0-1.8 2.213q1.95.325 3.275 1.837T17 189.5h-2q0-1.45-1.025-2.475A3.37 3.37 0 0 0 11.5 186q-1.45 0-2.475 1.025A3.37 3.37 0 0 0 8 189.5q0 1.45 1.025 2.475A3.37 3.37 0 0 0 11.5 193" fill="red"/></g><mask id="K" style="mask-type:alpha" maskUnits="userSpaceOnUse" x="39" y="175" width="24" height="24"><path fill="#d9d9d9" d="M39 175h24v24H39z"/></mask><g mask="url(#K)"><path d="M42 196v-14h4v-4h10v8h4v10h-8v-4h-2v4zm2-2h2v-2h-2zm0-4h2v-2h-2zm0-4h2v-2h-2zm4 4h2v-2h-2zm0-4h2v-2h-2zm0-4h2v-2h-2zm4 8h2v-2h-2zm0-4h2v-2h-2zm0-4h2v-2h-2zm4 12h2v-2h-2zm0-4h2v-2h-2z" fill="red"/></g><mask id="L" style="mask-type:alpha" maskUnits="userSpaceOnUse" x="73" y="175" width="24" height="24"><path fill="#d9d9d9" d="M73 175h24v24H73z"/></mask><g mask="url(#L)"><path d="m83.55 193.2 5.175-6.2h-4l.725-5.675L80.825 188H84.3zM81 197l1-7h-5l9-13h2l-1 8h6l-10 12z" fill="red"/></g><mask id="M" style="mask-type:alpha" maskUnits="userSpaceOnUse" x="107" y="175" width="24" height="24"><path fill="#d9d9d9" d="M107 175h24v24h-24z"/></mask><g mask="url(#M)"><path d="M113 195q-.825 0-1.412-.587A1.93 1.93 0 0 1 111 193q0-.825.588-1.412A1.92 1.92 0 0 1 113 191q.825 0 1.413.588.587.587.587 1.412a1.93 1.93 0 0 1-.587 1.413A1.93 1.93 0 0 1 113 195m6 0q-.825 0-1.412-.587A1.93 1.93 0 0 1 117 193q0-.825.588-1.412A1.92 1.92 0 0 1 119 191q.825 0 1.413.588.587.587.587 1.412a1.93 1.93 0 0 1-.587 1.413A1.93 1.93 0 0 1 119 195m6 0q-.825 0-1.412-.587A1.93 1.93 0 0 1 123 193q0-.825.588-1.412A1.92 1.92 0 0 1 125 191q.825 0 1.413.588.587.587.587 1.412a1.93 1.93 0 0 1-.587 1.413A1.93 1.93 0 0 1 125 195m-12-6q-.825 0-1.412-.587A1.93 1.93 0 0 1 111 187q0-.825.588-1.412A1.92 1.92 0 0 1 113 185q.825 0 1.413.588.587.587.587 1.412a1.93 1.93 0 0 1-.587 1.413A1.93 1.93 0 0 1 113 189m6 0q-.825 0-1.412-.587A1.93 1.93 0 0 1 117 187q0-.825.588-1.412A1.92 1.92 0 0 1 119 185q.825 0 1.413.588.587.587.587 1.412a1.93 1.93 0 0 1-.587 1.413A1.93 1.93 0 0 1 119 189m6 0q-.825 0-1.412-.587A1.93 1.93 0 0 1 123 187q0-.825.588-1.412A1.92 1.92 0 0 1 125 185q.825 0 1.413.588.587.587.587 1.412a1.93 1.93 0 0 1-.587 1.413A1.93 1.93 0 0 1 125 189m-12-6q-.825 0-1.412-.587A1.93 1.93 0 0 1 111 181q0-.825.588-1.412A1.92 1.92 0 0 1 113 179q.825 0 1.413.588.587.587.587 1.412a1.93 1.93 0 0 1-.587 1.413A1.93 1.93 0 0 1 113 183m6 0q-.825 0-1.412-.587A1.93 1.93 0 0 1 117 181q0-.825.588-1.412A1.92 1.92 0 0 1 119 179q.825 0 1.413.588.587.587.587 1.412a1.93 1.93 0 0 1-.587 1.413A1.93 1.93 0 0 1 119 183m6 0q-.825 0-1.412-.587A1.93 1.93 0 0 1 123 181q0-.825.588-1.412A1.92 1.92 0 0 1 125 179q.825 0 1.413.588.587.587.587 1.412a1.93 1.93 0 0 1-.587 1.413A1.93 1.93 0 0 1 125 183" fill="red"/></g><mask id="N" style="mask-type:alpha" maskUnits="userSpaceOnUse" x="141" y="175" width="24" height="24"><path fill="#d9d9d9" d="M141 175h24v24h-24z"/></mask><g mask="url(#N)"><path d="M148.356 196.5v-2.019l2.923-2.052v-3.965l-7.779 3.122v-2.48l7.779-5.465v-4.42q0-.71.506-1.215A1.66 1.66 0 0 1 153 177.5q.71 0 1.215.506.506.505.506 1.215v4.42l7.779 5.465v2.48l-7.779-3.122v3.965l2.914 2.052v2.019L153 195.096z" fill="red"/></g><mask id="O" style="mask-type:alpha" maskUnits="userSpaceOnUse" x="175" y="175" width="24" height="24"><path fill="#d9d9d9" d="M175 175h24v24h-24z"/></mask><g mask="url(#O)"><path d="M186.15 197q-.375 0-.75-.15t-.675-.45l-7.15-7.15q-.3-.3-.437-.662a2.06 2.06 0 0 1 0-1.488q.137-.375.437-.675l8.8-8.825a2.07 2.07 0 0 1 1.425-.6h7.175q.825 0 1.413.588.587.587.587 1.412v7.175a1.98 1.98 0 0 1-.575 1.4l-8.825 8.825q-.3.3-.675.45t-.75.15m0-2 8.825-8.85V179h-7.15L179 187.85zm6.325-12q.625 0 1.063-.438.437-.436.437-1.062 0-.625-.437-1.062a1.45 1.45 0 0 0-1.063-.438q-.625 0-1.062.438a1.44 1.44 0 0 0-.438 1.062q0 .625.438 1.062.437.438 1.062.438" fill="red"/></g><mask id="P" style="mask-type:alpha" maskUnits="userSpaceOnUse" x="209" y="175" width="24" height="24"><path fill="#d9d9d9" d="M209 175h24v24h-24z"/></mask><g mask="url(#P)"><path d="M228 183a.97.97 0 0 0 .712-.287A.97.97 0 0 0 229 182a.97.97 0 0 0-.288-.713A.97.97 0 0 0 228 181a.97.97 0 0 0-.712.287.97.97 0 0 0-.288.713q0 .425.288.713A.97.97 0 0 0 228 183m0 2q-1.275 0-2.137-.862Q225 183.275 225 182q0-1.25.863-2.125.862-.875 2.137-.875 1.25 0 2.125.875T231 182q0 1.275-.875 2.138-.875.862-2.125.862m-7-3q.625 0 1.062-.425t.438-1.075q0-.625-.438-1.062A1.44 1.44 0 0 0 221 179q-.65 0-1.075.438a1.47 1.47 0 0 0-.425 1.062q0 .65.425 1.075T221 182m0 2q-1.475 0-2.487-1.012-1.013-1.014-1.013-2.488 0-1.45 1.013-2.475T221 177q1.45 0 2.475 1.025a3.37 3.37 0 0 1 1.025 2.475q0 1.474-1.025 2.488Q222.45 184 221 184m-4 4.375q0 .75.8 1.75t3.2 3.175q2.35-2.125 3.175-3.125t.825-1.8q0-.575-.375-.975t-.925-.4q-.35 0-.662.15t-.513.425l-1.2 1.425h-.675l-1.2-1.425a1.34 1.34 0 0 0-.512-.425q-.313-.15-.638-.15-.575 0-.937.4a1.4 1.4 0 0 0-.363.975m-2 0q0-1.325.9-2.35t2.4-1.025q.775 0 1.488.35.712.35 1.212.95.5-.6 1.2-.95t1.5-.35q1.5 0 2.4 1.038.9 1.036.9 2.337 0 1.325-.962 2.613-.963 1.287-3.938 4.012l-1.1 1-1.1-1q-3.026-2.75-3.962-4.025-.939-1.275-.938-2.6M214 183a.97.97 0 0 0 .713-.287A.97.97 0 0 0 215 182a.97.97 0 0 0-.287-.713A.97.97 0 0 0 214 181a.97.97 0 0 0-.712.287.97.97 0 0 0-.288.713q0 .425.288.713A.97.97 0 0 0 214 183m7.075 14v-2H229v-7h-2.95v-2H229q.825 0 1.413.588.587.587.587 1.412v9zM213 195h8.075v2H211v-9q0-.825.575-1.412A1.9 1.9 0 0 1 213 186h2.95v2H213zm1-10q-1.275 0-2.137-.862Q211 183.275 211 182q0-1.25.863-2.125.862-.875 2.137-.875 1.25 0 2.125.875T217 182q0 1.275-.875 2.138-.875.862-2.125.862" fill="red"/></g><mask id="Q" style="mask-type:alpha" maskUnits="userSpaceOnUse" x="5" y="209" width="24" height="24"><path fill="#d9d9d9" d="M5 209h24v24H5z"/></mask><g mask="url(#Q)"><path d="M12.356 230.5v-2.019l2.923-2.052v-3.965L7.5 225.586v-2.48l7.779-5.465v-4.42q0-.71.506-1.215A1.66 1.66 0 0 1 17 211.5q.71 0 1.215.506.507.505.506 1.215v4.42l7.779 5.465v2.48l-7.779-3.122v3.965l2.913 2.052v2.019L17 229.096z" fill="red"/></g><mask id="R" style="mask-type:alpha" maskUnits="userSpaceOnUse" x="39" y="209" width="24" height="24"><path fill="#d9d9d9" d="M39 209h24v24H39z"/></mask><g mask="url(#R)"><path d="M45 229q-.824 0-1.413-.587A1.93 1.93 0 0 1 43 227q0-.825.587-1.412A1.93 1.93 0 0 1 45 225q.824 0 1.413.588.587.587.587 1.412t-.587 1.413A1.93 1.93 0 0 1 45 229m6 0q-.824 0-1.413-.587A1.93 1.93 0 0 1 49 227q0-.825.587-1.412A1.93 1.93 0 0 1 51 225q.824 0 1.413.588.587.587.587 1.412t-.587 1.413A1.93 1.93 0 0 1 51 229m6 0q-.824 0-1.413-.587A1.93 1.93 0 0 1 55 227q0-.825.587-1.412A1.93 1.93 0 0 1 57 225q.824 0 1.413.588.587.587.587 1.412t-.587 1.413A1.93 1.93 0 0 1 57 229m-12-6q-.824 0-1.413-.587A1.93 1.93 0 0 1 43 221q0-.825.587-1.412A1.93 1.93 0 0 1 45 219q.824 0 1.413.588.587.587.587 1.412t-.587 1.413A1.93 1.93 0 0 1 45 223m6 0q-.824 0-1.413-.587A1.93 1.93 0 0 1 49 221q0-.825.587-1.412A1.93 1.93 0 0 1 51 219q.824 0 1.413.588.587.587.587 1.412t-.587 1.413A1.93 1.93 0 0 1 51 223m6 0q-.824 0-1.413-.587A1.93 1.93 0 0 1 55 221q0-.825.587-1.412A1.93 1.93 0 0 1 57 219q.824 0 1.413.588.587.587.587 1.412t-.587 1.413A1.93 1.93 0 0 1 57 223m-12-6q-.824 0-1.413-.587A1.93 1.93 0 0 1 43 215q0-.825.587-1.412A1.93 1.93 0 0 1 45 213q.824 0 1.413.588.587.587.587 1.412t-.587 1.413A1.93 1.93 0 0 1 45 217m6 0q-.824 0-1.413-.587A1.93 1.93 0 0 1 49 215q0-.825.587-1.412A1.93 1.93 0 0 1 51 213q.824 0 1.413.588.587.587.587 1.412t-.587 1.413A1.93 1.93 0 0 1 51 217m6 0q-.824 0-1.413-.587A1.93 1.93 0 0 1 55 215q0-.825.587-1.412A1.93 1.93 0 0 1 57 213q.824 0 1.413.588.587.587.587 1.412t-.587 1.413A1.93 1.93 0 0 1 57 217" fill="red"/></g><mask id="S" style="mask-type:alpha" maskUnits="userSpaceOnUse" x="73" y="209" width="24" height="24"><path fill="#d9d9d9" d="M73 209h24v24H73z"/></mask><g mask="url(#S)"><path d="M84.15 231q-.375 0-.75-.15t-.675-.45l-7.15-7.15q-.3-.3-.437-.662a2.07 2.07 0 0 1 0-1.488q.137-.375.437-.675l8.8-8.825a2.07 2.07 0 0 1 1.425-.6h7.175q.824 0 1.413.588.587.587.587 1.412v7.175a1.98 1.98 0 0 1-.575 1.4l-8.825 8.825q-.3.3-.675.45t-.75.15m0-2 8.825-8.85V213h-7.15L77 221.85zm6.325-12q.624 0 1.063-.438.437-.436.437-1.062 0-.625-.437-1.062a1.45 1.45 0 0 0-1.063-.438q-.625 0-1.062.438a1.44 1.44 0 0 0-.438 1.062q0 .625.438 1.062.436.438 1.062.438" fill="red"/></g><mask id="T" style="mask-type:alpha" maskUnits="userSpaceOnUse" x="107" y="209" width="24" height="24"><path fill="#d9d9d9" d="M107 209h24v24h-24z"/></mask><g mask="url(#T)"><path d="M110 230v-14h4v-4h10v8h4v10h-8v-4h-2v4zm2-2h2v-2h-2zm0-4h2v-2h-2zm0-4h2v-2h-2zm4 4h2v-2h-2zm0-4h2v-2h-2zm0-4h2v-2h-2zm4 8h2v-2h-2zm0-4h2v-2h-2zm0-4h2v-2h-2zm4 12h2v-2h-2zm0-4h2v-2h-2z" fill="red"/></g><mask id="U" style="mask-type:alpha" maskUnits="userSpaceOnUse" x="141" y="209" width="24" height="24"><path fill="#d9d9d9" d="M141 209h24v24h-24z"/></mask><g mask="url(#U)"><path d="M160 217a.97.97 0 0 0 .712-.287A.97.97 0 0 0 161 216a.97.97 0 0 0-.288-.713A.97.97 0 0 0 160 215a.97.97 0 0 0-.712.287.97.97 0 0 0-.288.713q0 .425.288.713A.97.97 0 0 0 160 217m0 2q-1.275 0-2.137-.862Q157 217.275 157 216q0-1.25.863-2.125.862-.875 2.137-.875 1.25 0 2.125.875T163 216q0 1.275-.875 2.138-.875.862-2.125.862m-7-3q.625 0 1.062-.425t.438-1.075q0-.625-.438-1.062A1.44 1.44 0 0 0 153 213q-.65 0-1.075.438a1.47 1.47 0 0 0-.425 1.062q0 .65.425 1.075T153 216m0 2q-1.475 0-2.487-1.012-1.013-1.014-1.013-2.488 0-1.45 1.013-2.475T153 211q1.45 0 2.475 1.025a3.37 3.37 0 0 1 1.025 2.475q0 1.474-1.025 2.488Q154.45 218 153 218m-4 4.375q0 .75.8 1.75t3.2 3.175q2.35-2.125 3.175-3.125t.825-1.8q0-.575-.375-.975t-.925-.4q-.35 0-.662.15t-.513.425l-1.2 1.425h-.675l-1.2-1.425a1.34 1.34 0 0 0-.512-.425q-.313-.15-.638-.15-.575 0-.937.4a1.4 1.4 0 0 0-.363.975m-2 0q0-1.325.9-2.35t2.4-1.025q.775 0 1.488.35.712.35 1.212.95.5-.6 1.2-.95t1.5-.35q1.5 0 2.4 1.038.9 1.036.9 2.337 0 1.325-.962 2.613-.963 1.287-3.938 4.012l-1.1 1-1.1-1q-3.026-2.75-3.962-4.025-.939-1.275-.938-2.6M146 217a.97.97 0 0 0 .713-.287A.97.97 0 0 0 147 216a.97.97 0 0 0-.287-.713A.97.97 0 0 0 146 215a.97.97 0 0 0-.712.287.97.97 0 0 0-.288.713q0 .425.288.713A.97.97 0 0 0 146 217m7.075 14v-2H161v-7h-2.95v-2H161q.825 0 1.413.588.587.587.587 1.412v9zM145 229h8.075v2H143v-9q0-.825.575-1.412A1.9 1.9 0 0 1 145 220h2.95v2H145zm1-10q-1.275 0-2.137-.862Q143 217.275 143 216q0-1.25.863-2.125.862-.875 2.137-.875 1.25 0 2.125.875T149 216q0 1.275-.875 2.138-.875.862-2.125.862" fill="red"/></g><mask id="V" style="mask-type:alpha" maskUnits="userSpaceOnUse" x="175" y="209" width="24" height="24"><path fill="#d9d9d9" d="M175 209h24v24h-24z"/></mask><g mask="url(#V)"><path d="M181.5 229q-2.3 0-3.9-1.6t-1.6-3.9q0-1.95 1.212-3.438 1.213-1.487 3.038-1.912a6.96 6.96 0 0 1 2.475-3.7Q184.575 213 187 213q2.975 0 4.988 2.062Q194 217.125 194 220q1.875.2 2.938 1.55Q198 222.9 198 224.475q0 1.875-1.312 3.2Q195.374 229 193.5 229zm0-2h12q1.05 0 1.775-.725T196 224.5t-.725-1.775T193.5 222H192v-2q0-2.075-1.462-3.537Q189.074 215 187 215q-1.575 0-2.8.862a5.1 5.1 0 0 0-1.8 2.213q1.95.325 3.275 1.837T187 223.5h-2q0-1.45-1.025-2.475A3.37 3.37 0 0 0 181.5 220q-1.45 0-2.475 1.025A3.37 3.37 0 0 0 178 223.5q0 1.45 1.025 2.475A3.37 3.37 0 0 0 181.5 227" fill="red"/></g><mask id="W" style="mask-type:alpha" maskUnits="userSpaceOnUse" x="209" y="209" width="24" height="24"><path fill="#d9d9d9" d="M209 209h24v24h-24z"/></mask><g mask="url(#W)"><path d="m219.55 227.2 5.175-6.2h-4l.725-5.675-4.625 6.675h3.475zM217 231l1-7h-5l9-13h2l-1 8h6l-10 12z" fill="red"/></g></svg>